<svg width="318" height="1" viewBox="0 0 318 1" fill="none" xmlns="http://www.w3.org/2000/svg">
<path d="M7.72727 1.00024V0.500244H7.72723V0.000244141H21.1818V0.500244H21.1818V1.00024H7.72727ZM50.0909 1.00024H36.6364V0.500244L36.6363 0.000244141H50.0909L50.0909 0.500244V1.00024ZM65.5455 0.500244L65.5455 0.000244141H79L79 0.500244V1.00024H65.5455V0.500244ZM94.4545 0.500244L94.4546 0.000244141H107.909L107.909 0.500244V1.00024H94.4545V0.500244ZM123.364 0.500244L123.364 0.000244141H136.818V0.500244V1.00024H123.364V0.500244ZM152.273 0.500244L152.273 0.000244141H165.727L165.727 0.500244V1.00024H152.273V0.500244ZM181.182 0.500244V0.000244141H194.636L194.636 0.500244V1.00024H181.182V0.500244ZM210.091 0.500244L210.091 0.000244141H223.545V0.500244V1.00024H210.091V0.500244ZM239 0.500244L239 0.000244141H252.455L252.455 0.500244V1.00024H239V0.500244ZM267.909 0.500244V0.000244141H281.364V0.500244V1.00024H267.909V0.500244ZM296.818 0.500244L296.818 0.000244141H310.273L310.273 0.500244V1.00024H296.818V0.500244Z" stroke="#343A69" stroke-width="0.5" stroke-linecap="square" stroke-dasharray="14 14"/>
</svg>
