<svg width="474" height="301" viewBox="0 0 474 301" fill="none" xmlns="http://www.w3.org/2000/svg">
<g filter="url(#filter0_d)">
<path d="M151.865 251.708C123.726 249.372 97.5192 239.944 77.6247 225C52.5416 206.396 40 180.66 40 147.792L40 34L330.91 34C370.048 34 396.947 41.8056 411.607 57.4167C426.267 73.0278 433.731 101.806 434 143.752C434 179.363 421.458 206.471 396.375 225.074C382.486 235.686 365.1 243.422 345.94 247.519C323.642 251.833 300.779 254.342 277.752 255L235.083 254.551C207.293 254.829 179.504 253.88 151.865 251.708Z" fill="white"/>
</g>
<defs>
<filter id="filter0_d" x="0" y="0" width="474" height="301" filterUnits="userSpaceOnUse" color-interpolation-filters="sRGB">
<feFlood flood-opacity="0" result="BackgroundImageFix"/>
<feColorMatrix in="SourceAlpha" type="matrix" values="0 0 0 0 0 0 0 0 0 0 0 0 0 0 0 0 0 0 127 0" result="hardAlpha"/>
<feOffset dy="6"/>
<feGaussianBlur stdDeviation="20"/>
<feComposite in2="hardAlpha" operator="out"/>
<feColorMatrix type="matrix" values="0 0 0 0 0.188134 0 0 0 0 0.135017 0 0 0 0 0.420833 0 0 0 0.29 0"/>
<feBlend mode="normal" in2="BackgroundImageFix" result="effect1_dropShadow"/>
<feBlend mode="normal" in="SourceGraphic" in2="effect1_dropShadow" result="shape"/>
</filter>
</defs>
</svg>
