<svg width="1286" height="504" viewBox="0 0 1286 504" fill="none" xmlns="http://www.w3.org/2000/svg">
<path d="M686.513 344.654V185.97H578.132V275.327H484.956C484.192 294.351 481.062 307.746 475.565 315.51C469.178 324.502 457.606 328.997 440.85 328.997H422.885V774.776C451.12 781.546 483.22 784.954 519.185 785H546.176V596.791H477.249V382.893H552.963C577.009 382.893 593.887 387.047 603.595 395.356C613.304 403.664 618.158 418.331 618.158 439.357V532.117H686.513V394.991H948.284C971.312 394.991 989.688 399.041 1003.41 407.141C1010.5 411.266 1016.63 416.851 1021.39 423.527C1034.85 442.482 1041.58 477.394 1041.58 528.263C1041.58 571.461 1030.28 604.371 1007.68 626.993C1004.71 629.951 1001.6 632.755 998.343 635.395V698.195H1285.02V380.949C1285.02 368.538 1284.57 356.492 1283.82 344.654H686.513ZM1075.76 412.592H1171.49C1176.81 412.592 1180.48 414.032 1182.51 416.896C1184.54 419.76 1185.56 425.02 1185.56 432.692C1185.56 439.218 1183.83 444.188 1180.36 447.602C1178.47 449.549 1176.12 450.972 1173.52 451.733C1170.48 452.505 1167.38 452.959 1164.25 453.087H1158.45H1102.32C1100.94 453.087 1099.68 453.087 1098.46 453.087C1095.95 453.053 1093.44 452.891 1090.95 452.601C1087.13 452.176 1083.58 450.454 1080.88 447.724C1077.41 444.252 1075.7 439.531 1075.76 433.56V412.592ZM1102.32 554.265H1098.46C1095.48 554.265 1092.96 554.039 1090.95 553.796C1087.13 553.365 1083.58 551.637 1080.88 548.901C1077.41 545.43 1075.7 540.714 1075.76 534.755V513.787H1144.77C1150.1 513.787 1153.76 515.21 1155.79 518.074C1157.83 520.938 1158.85 526.198 1158.85 533.87C1158.85 540.396 1157.14 545.366 1153.73 548.78C1151.85 550.726 1149.49 552.15 1146.89 552.911C1143.86 553.7 1140.75 554.154 1137.62 554.265H1131.84H1102.32ZM1242.29 587.47C1242.29 593.493 1240.55 598.197 1237.08 601.617C1234.37 604.349 1230.82 606.076 1227 606.511C1225 606.754 1222.47 606.911 1219.48 606.98C1218.26 606.98 1217 606.98 1215.63 606.98H1159.49H1153.69C1150.57 606.923 1147.46 606.522 1144.43 605.782C1141.79 605.038 1139.39 603.613 1137.48 601.651C1134.01 598.18 1132.36 593.268 1132.36 586.758C1132.36 579.069 1133.39 573.81 1135.42 570.946C1137.45 568.082 1141.13 566.658 1146.44 566.658H1242.18L1242.29 587.47ZM1242.29 487.837C1242.29 493.843 1240.55 498.558 1237.08 501.984C1234.37 504.716 1230.82 506.443 1227 506.878C1225 507.121 1222.47 507.278 1219.48 507.347H1186.21H1180.41C1177.28 507.237 1174.18 506.783 1171.16 505.993C1168.55 505.235 1166.19 503.811 1164.3 501.862C1160.9 498.391 1159.2 493.421 1159.2 486.952C1159.2 479.28 1160.21 474.015 1162.23 471.156C1164.26 468.298 1167.93 466.869 1173.26 466.869H1242.29V487.837Z" fill="#9681F2"/>
<path d="M768.094 47.1959H859.325V118.779C859.325 139.446 853.47 155.647 841.759 167.38C832.441 176.771 820.192 182.694 807.044 184.165C800.101 185.033 791.526 185.571 781.251 185.901C777.085 186.005 772.745 186.057 768.024 186.057H686.443V344.741H1283.82C1277.54 245.224 1244.88 165.888 1185.84 106.733C1132.37 53.2017 1067.21 21.576 990.358 11.8558C935.878 5.02842 862.456 1.65525 770.09 1.73625L686.513 0.538574V47.1959H768.094ZM1068.19 119.282H1133.7C1152.62 119.282 1167.44 124.646 1178.17 135.373C1186.75 143.877 1192.17 155.06 1193.53 167.068C1194.82 178.924 1195.4 190.847 1195.27 202.773L1195.51 220.998C1195.12 230.814 1193.69 240.56 1191.24 250.072C1188.85 258.262 1184.37 265.687 1178.24 271.613C1167.51 282.328 1151.89 287.686 1131.37 287.686C1107.24 287.686 1090.69 284.492 1081.69 278.105C1072.7 271.717 1068.21 260.145 1068.22 243.389L1068.19 119.282ZM1027.97 119.282H1040.63V131.919H1027.97V119.282ZM1027.97 147.054H1040.63V159.691H1027.97V147.054ZM1027.97 174.827H1040.63V187.463H1027.97V174.827ZM998.464 119.404H1011.12V131.919H998.464V119.404ZM998.464 147.176H1011.12V159.691H998.464V147.176ZM998.464 174.948H1011.12V187.585H998.464V174.948ZM968.956 119.525H981.593V131.919H968.956V119.525ZM968.956 147.298H981.593V159.691H968.956V147.298ZM968.956 175.07H981.593V187.706H968.956V175.07ZM895.863 208.448H955.955V263.576C955.955 279.499 951.442 291.974 942.416 300.999C935.26 308.228 925.846 312.791 915.738 313.931C910.53 314.591 903.778 315.007 895.863 315.198V315.32H807.686L792.377 315.528C784.108 315.212 775.897 314.008 767.885 311.935C760.998 309.935 754.756 306.165 749.781 300.999C740.755 291.974 736.242 278.834 736.242 261.58C736.242 241.295 738.927 227.363 744.296 219.783C749.666 212.204 759.392 208.42 773.474 208.431H895.933L895.863 208.448Z" fill="#12152A"/>
<path d="M781.32 185.814C791.596 185.571 800.24 185.033 807.114 184.078C820.261 182.607 832.511 176.684 841.829 167.293C853.551 155.56 859.407 139.359 859.395 118.692V47.1958H686.513V186.057H768.094C772.815 185.97 777.155 185.918 781.32 185.814Z" fill="white"/>
<path d="M1285.02 380.949V344.654H1283.83C1284.57 356.492 1285.02 368.538 1285.02 380.949Z" fill="#9681F2"/>
<path d="M332.833 219.001C341.337 210.417 352.52 204.997 364.528 203.64C376.386 202.383 388.309 201.833 400.233 201.991L418.458 201.748C419.986 201.748 421.409 201.956 422.884 202.078V143.53H314.451C269.113 206.909 246.421 290.897 246.374 395.494C246.151 437.89 248.109 480.27 252.241 522.465C260.77 604.081 278.492 663.855 305.408 701.787C331.051 737.856 370.198 762.157 422.85 774.689V328.997H316.742V263.489C316.742 244.569 322.106 229.74 332.833 219.001ZM329.361 438.715H316.708V426.061H329.361V438.715ZM329.361 410.942H316.708V398.358H329.361V410.942ZM375.706 370.586H388.343V383.239H375.706V370.586ZM375.706 398.358H388.343V411.012H375.706V398.358ZM375.706 426.13H388.343V438.784H375.706V426.13ZM346.198 370.725H358.852V383.378H346.198V370.725ZM346.198 398.497H358.852V411.151H346.198V398.497ZM346.198 426.269H358.852V438.923H346.198V426.269ZM329.361 370.863V383.517H316.708V370.863H329.361Z" fill="#12152A"/>
<path d="M353.055 301.555V264.288C353.055 253.526 356.104 245.096 362.203 238.998C367.053 234.139 373.414 231.078 380.237 230.319C386.982 229.608 393.764 229.295 400.546 229.381L410.96 229.243C414.978 229.452 418.978 229.915 422.937 230.631V202.078C421.462 201.956 420.038 201.835 418.511 201.748L400.285 201.991C388.362 201.833 376.439 202.383 364.581 203.64C352.573 204.997 341.39 210.417 332.886 219.002C322.159 229.752 316.795 244.581 316.795 263.489V328.997H422.937V301.555H353.055Z" fill="#9681F2"/>
<path d="M422.885 301.554H423.683C433.195 301.554 439.768 298.997 443.402 293.882C447.035 288.768 448.846 279.331 448.835 265.572C448.835 253.908 445.785 245.026 439.687 238.928C436.318 235.444 432.101 232.896 427.45 231.534C426.044 231.134 424.499 230.805 422.885 230.492V301.485V301.554Z" fill="white"/>
<path d="M400.546 229.312C393.764 229.225 386.983 229.538 380.238 230.249C373.414 231.008 367.053 234.069 362.203 238.928C356.105 245.038 353.055 253.468 353.055 264.218V301.485H422.885V230.492C418.926 229.776 414.926 229.313 410.909 229.104L400.546 229.312Z" fill="#12152A"/>
<path d="M329.397 370.655H316.743V383.309H329.397V370.655Z" fill="#9681F2"/>
<path d="M358.887 370.655H346.234V383.309H358.887V370.655Z" fill="#9681F2"/>
<path d="M388.395 370.655H375.742V383.309H388.395V370.655Z" fill="#9681F2"/>
<path d="M329.397 398.358H316.743V411.012H329.397V398.358Z" fill="#9681F2"/>
<path d="M358.887 398.358H346.234V411.012H358.887V398.358Z" fill="#9681F2"/>
<path d="M388.395 398.358H375.742V411.012H388.395V398.358Z" fill="#9681F2"/>
<path d="M329.397 426.061H316.743V438.715H329.397V426.061Z" fill="#9681F2"/>
<path d="M358.887 426.061H346.234V438.715H358.887V426.061Z" fill="#9681F2"/>
<path d="M388.395 426.061H375.742V438.715H388.395V426.061Z" fill="#9681F2"/>
<path d="M618.156 532.116V439.357C618.156 418.331 613.302 403.664 603.593 395.355C593.885 387.047 577.007 382.893 552.961 382.893H477.247V596.791H546.174V532.116H618.156Z" fill="#12152A"/>
<path d="M1090.95 452.479C1093.44 452.769 1095.95 452.931 1098.46 452.965C1099.68 452.965 1100.94 452.965 1102.32 452.965H1158.54H1164.33C1167.46 452.837 1170.57 452.383 1173.6 451.611C1176.2 450.85 1178.56 449.427 1180.44 447.48C1183.91 444.009 1185.65 439.039 1185.65 432.57C1185.65 424.898 1184.63 419.621 1182.6 416.774C1180.56 413.928 1176.9 412.47 1171.57 412.47H1075.76V433.299C1075.76 439.328 1077.47 444.049 1080.88 447.463C1083.56 450.244 1087.11 452.016 1090.95 452.479Z" fill="#12152A"/>
<path d="M1215.71 466.921H1173.26C1167.95 466.921 1164.27 468.35 1162.24 471.208C1160.2 474.066 1159.19 479.332 1159.2 487.004C1159.2 493.53 1160.9 498.5 1164.3 501.914C1166.19 503.863 1168.55 505.287 1171.16 506.045C1174.18 506.834 1177.28 507.288 1180.41 507.399H1186.21H1219.57C1222.55 507.399 1225.09 507.173 1227.08 506.93C1230.9 506.494 1234.46 504.768 1237.17 502.035C1240.64 498.564 1242.38 493.848 1242.38 487.889V466.921H1215.71Z" fill="white"/>
<path d="M492.679 61.9321C499.622 52.1077 512.247 47.1955 530.553 47.1955H686.512V0.538118L657.733 0.15625C586.728 4.07908 526.931 12.8505 478.342 26.4705C429.752 40.0904 385.49 66.8154 345.555 106.645C334.195 118.069 323.792 130.405 314.451 143.53H422.884V202.078C431.207 202.589 439.461 203.903 447.532 206.001C449.11 206.47 450.662 207.02 452.184 207.65C458.523 210.252 464.269 214.114 469.073 219.002C479.776 229.752 485.134 245.374 485.146 265.867C485.146 269.2 485.146 272.342 484.955 275.362H578.131V185.97H575.093L555.184 186.248C544.453 185.839 533.797 184.274 523.402 181.578C514.456 178.972 506.343 174.078 499.865 167.38C488.097 155.646 482.212 138.618 482.212 116.296C482.212 109.562 482.438 103.382 482.907 97.7236C484.191 81.176 487.448 69.2455 492.679 61.9321Z" fill="white"/>
<path d="M469.074 219.002C464.27 214.114 458.524 210.252 452.185 207.65C450.664 207.02 449.111 206.47 447.533 206.001C439.462 203.903 431.208 202.59 422.885 202.078V230.562C424.499 230.874 426.044 231.204 427.45 231.603C432.101 232.965 436.318 235.514 439.687 238.998C445.797 245.108 448.846 253.989 448.835 265.642C448.835 279.354 447.024 288.768 443.402 293.883C439.78 298.997 433.207 301.555 423.683 301.555H422.885V328.997H440.92C457.629 328.997 469.201 324.502 475.635 315.51C481.131 307.746 484.262 294.351 485.025 275.327C485.147 272.307 485.216 269.165 485.216 265.833C485.17 245.351 479.789 229.74 469.074 219.002Z" fill="#12152A"/>
<path d="M686.513 0V0.538087L770.09 1.73577C862.444 1.73577 935.867 5.13787 990.359 11.9421C1067.18 21.6739 1132.34 53.2706 1185.84 106.732C1244.94 165.887 1277.6 245.223 1283.82 344.74H1285.02V0H686.513ZM1196.95 46.8657H1184.35V34.2119H1197L1196.95 46.8657ZM1226.46 46.8657H1213.86V34.2119H1226.51L1226.46 46.8657ZM1255.97 46.8657H1243.36V34.2119H1256.02L1255.97 46.8657Z" fill="white"/>
<path d="M1081.66 278.104C1090.65 284.492 1107.21 287.686 1131.34 287.686C1151.82 287.686 1167.44 282.328 1178.2 271.613C1184.34 265.686 1188.82 258.261 1191.2 250.072C1193.65 240.56 1195.09 230.813 1195.47 220.998L1195.23 202.772C1195.36 190.847 1194.78 178.924 1193.49 167.068C1192.14 155.071 1186.74 143.895 1178.17 135.39C1167.44 124.663 1152.62 119.299 1133.7 119.299H1068.19V243.476C1068.19 260.174 1072.68 271.717 1081.66 278.104ZM1095.54 155.594H1132.81C1143.57 155.594 1152 158.643 1158.1 164.742C1162.96 169.592 1166.02 175.953 1166.78 182.776C1167.49 189.521 1167.8 196.303 1167.72 203.085L1167.86 213.499C1167.64 219.085 1166.83 224.631 1165.43 230.041C1164.08 234.699 1161.53 238.92 1158.03 242.278C1151.92 248.388 1143.05 251.437 1131.41 251.426C1117.67 251.426 1108.25 249.615 1103.15 245.993C1098.04 242.371 1095.49 235.798 1095.48 226.275L1095.54 155.594Z" fill="#9681F2"/>
<path d="M1103.29 245.94C1108.41 249.562 1117.83 251.373 1131.55 251.373C1143.19 251.373 1152.06 248.324 1158.17 242.226C1161.67 238.867 1164.22 234.647 1165.57 229.988C1166.97 224.578 1167.78 219.032 1168 213.447L1167.86 203.032C1167.95 196.25 1167.63 189.469 1166.92 182.724C1166.16 175.9 1163.1 169.539 1158.24 164.689C1152.13 158.602 1143.7 155.553 1132.95 155.542H1095.62V226.17C1095.62 235.717 1098.17 242.307 1103.29 245.94Z" fill="white"/>
<path d="M981.645 119.282H968.991V131.935H981.645V119.282Z" fill="#9681F2"/>
<path d="M1011.13 119.282H998.479V131.935H1011.13V119.282Z" fill="#9681F2"/>
<path d="M1040.62 119.282H1027.97V131.935H1040.62V119.282Z" fill="#9681F2"/>
<path d="M981.645 146.985H968.991V159.639H981.645V146.985Z" fill="#9681F2"/>
<path d="M1011.13 146.985H998.479V159.639H1011.13V146.985Z" fill="#9681F2"/>
<path d="M1040.62 146.985H1027.97V159.639H1040.62V146.985Z" fill="#9681F2"/>
<path d="M981.645 174.705H968.991V187.358H981.645V174.705Z" fill="#9681F2"/>
<path d="M1011.13 174.705H998.479V187.358H1011.13V174.705Z" fill="#9681F2"/>
<path d="M1040.62 174.705H1027.97V187.358H1040.62V174.705Z" fill="#9681F2"/>
<path d="M920.234 282.271H907.58V294.924H920.234V282.271Z" fill="#9681F2"/>
<path d="M920.234 252.78H907.58V265.434H920.234V252.78Z" fill="#9681F2"/>
<path d="M920.234 223.289H907.58V235.943H920.234V223.289Z" fill="#9681F2"/>
<path d="M1255.93 34.2119H1243.28V46.8656H1255.93V34.2119Z" fill="#9681F2"/>
<path d="M1226.44 34.2119H1213.79V46.8656H1226.44V34.2119Z" fill="#9681F2"/>
<path d="M1196.95 34.2119H1184.29V46.8656H1196.95V34.2119Z" fill="#9681F2"/>
<path d="M282.303 50.459H269.65V63.1127H282.303V50.459Z" fill="white"/>
<path d="M282.303 78.1616H269.65V90.8154H282.303V78.1616Z" fill="white"/>
<path d="M311.794 105.864H299.14V118.518H311.794V105.864Z" fill="white"/>
<path d="M311.794 78.1616H299.14V90.8154H311.794V78.1616Z" fill="white"/>
<path d="M311.794 50.459H299.14V63.1127H311.794V50.459Z" fill="white"/>
<path d="M282.303 105.864H269.65V118.518H282.303V105.864Z" fill="white"/>
<path d="M252.815 50.459H240.161V63.1127H252.815V50.459Z" fill="white"/>
<path d="M252.815 105.864H240.161V118.518H252.815V105.864Z" fill="white"/>
<path d="M252.815 78.1616H240.161V90.8154H252.815V78.1616Z" fill="white"/>
<path d="M575.093 47.1958H530.553C512.282 47.1958 499.657 52.108 492.679 61.9324C487.448 69.2458 484.191 81.1474 482.907 97.6371H578.131V185.97H686.512V47.1958H575.093Z" fill="#12152A"/>
<path d="M501.983 97.6372H482.89C482.421 103.296 482.196 109.475 482.196 116.21C482.196 138.578 488.051 155.635 499.762 167.38C506.24 174.079 514.352 178.972 523.299 181.579C533.694 184.274 544.349 185.839 555.08 186.248L574.99 185.97H578.114V97.6372H501.983Z" fill="#9681F2"/>
<path d="M1021.39 423.526C1016.63 416.898 1010.51 411.355 1003.45 407.262C989.699 399.162 971.323 395.112 948.318 395.112H686.513V532.237H998.343V635.29C1001.6 632.65 1004.71 629.846 1007.68 626.889C1030.28 604.266 1041.58 571.356 1041.58 528.158C1041.58 477.3 1034.85 442.423 1021.39 423.526Z" fill="#12152A"/>
<path d="M314.451 143.53H195.673C123.534 143.53 72.8906 156.005 43.7413 180.953C14.592 205.902 0.0115718 249.933 0 313.045V522.465H252.241C248.096 480.253 246.126 437.856 246.34 395.442C246.363 290.833 269.067 206.863 314.451 143.53Z" fill="white"/>
<path d="M190.534 398.028H121.364C116.035 398.028 112.373 399.469 110.342 402.333C108.311 405.197 107.287 410.456 107.287 418.128C107.287 424.655 108.994 429.625 112.408 433.039C114.291 434.985 116.647 436.409 119.247 437.17C122.281 437.941 125.387 438.395 128.516 438.524H134.313H190.534C191.906 438.524 193.173 438.524 194.388 438.524C196.9 438.489 199.408 438.327 201.904 438.038C205.717 437.604 209.268 435.884 211.971 433.16C215.443 429.689 217.149 424.967 217.092 418.996V398.167H190.534V398.028Z" fill="#9681F2"/>
<path d="M65.7673 283.902C67.7635 284.145 70.2977 284.301 73.2832 284.371C74.4982 284.371 75.7653 284.371 77.1366 284.371H133.358H139.155C142.28 284.248 145.382 283.789 148.407 283C151.013 282.241 153.376 280.818 155.263 278.869C158.735 275.397 160.471 270.485 160.471 263.976C160.471 256.286 159.447 251.027 157.416 248.163C155.385 245.299 151.705 243.875 146.394 243.875H50.562V264.705C50.413 267.287 50.79 269.872 51.6702 272.304C52.5504 274.735 53.9154 276.963 55.6825 278.851C58.366 281.641 61.9262 283.424 65.7673 283.902Z" fill="#12152A"/>
<path d="M121.695 384.403C124.333 383.653 126.728 382.223 128.638 380.254C132.109 376.783 133.741 371.871 133.741 365.361C133.741 357.689 132.728 352.418 130.703 349.549C128.678 346.679 125.004 345.25 119.681 345.261H50.563V366.09C50.563 372.114 52.2987 376.835 55.6835 380.237C58.3898 382.969 61.9475 384.696 65.7683 385.132C67.7644 385.375 70.2986 385.531 73.2841 385.618H106.646L112.443 385.705C115.564 385.595 118.665 385.159 121.695 384.403Z" fill="#12152A"/>
<path d="M190.536 298.396H148.096C142.767 298.396 139.105 299.819 137.074 302.683C135.043 305.547 134.019 310.824 134.019 318.496C134.019 325.005 135.755 329.986 139.226 333.389C141.112 335.344 143.475 336.774 146.083 337.537C149.111 338.311 152.211 338.765 155.334 338.891L161.114 338.804H194.493C197.479 338.804 199.995 338.561 202.009 338.318C205.826 337.887 209.379 336.159 212.076 333.423C215.548 330.021 217.255 325.306 217.197 319.277V298.448H190.64L190.536 298.396Z" fill="#9681F2"/>
<path d="M15.3074 66.4455C16.7655 66.6191 18.5707 66.7406 20.7404 66.7926H23.5176H64.0651H68.2483C70.4992 66.7041 72.734 66.3724 74.9136 65.8033C76.791 65.2571 78.4952 64.2346 79.8605 62.8351C82.3253 60.3703 83.5404 56.7773 83.5404 52.0734C83.5404 46.5363 82.8113 42.7523 81.3533 40.6867C79.8953 38.6212 77.2395 37.6665 73.4556 37.6665H4.35476V52.7156C4.25172 54.5767 4.52443 56.4395 5.15664 58.193C5.78885 59.9465 6.7676 61.5547 8.03457 62.9219C9.9915 64.8839 12.5549 66.1258 15.3074 66.4455Z" fill="#9681F2"/>
<path d="M105.292 76.8945H74.6731C70.8371 76.8945 68.1987 77.936 66.7233 79.9842C65.2479 82.0324 64.5363 85.8511 64.5363 91.3882C64.5363 96.0921 65.7513 99.6678 68.2161 102.133C69.5734 103.546 71.2799 104.576 73.163 105.118C75.3433 105.681 77.5781 106.007 79.8284 106.09H84.0116H108.069C109.885 106.067 111.698 105.951 113.502 105.743C116.251 105.447 118.816 104.222 120.775 102.271C122.051 100.896 123.034 99.2764 123.667 97.5103C124.299 95.7442 124.567 93.8682 124.455 91.9957V76.8945H105.361H105.292Z" fill="white"/>
</svg>
