<svg width="683" height="335" viewBox="0 0 683 335" fill="none" xmlns="http://www.w3.org/2000/svg">
<path d="M179.332 41.3518L179.439 50.2001C179.27 54.9775 178.618 59.722 177.492 64.3529C176.384 68.3359 174.312 71.9458 171.479 74.8264C166.528 80.0481 159.338 82.6514 149.907 82.6363C138.779 82.6363 131.147 81.0864 127.009 77.9865C122.872 74.8866 120.796 69.3037 120.782 61.2379V0.76709H150.977C159.709 0.76709 166.542 3.37039 171.479 8.57704C175.44 12.7118 177.94 18.1524 178.562 23.9938C179.147 29.7585 179.404 35.5548 179.332 41.3518ZM163.582 56.0238C164.065 51.1883 164.265 46.3261 164.181 41.4647C164.271 36.6859 164.071 31.9058 163.582 27.1539C163.326 24.5765 162.401 22.1237 160.907 20.0663C159.515 18.3564 157.767 17.01 155.799 16.1327C153.831 15.2554 151.697 14.8712 149.565 15.0101H135.933V60.335C135.805 61.5756 136.015 62.8289 136.538 63.9482C137.061 65.0674 137.876 66.0064 138.886 66.6552C142.227 68.0636 145.828 68.6503 149.415 68.3707C151.571 68.5258 153.732 68.1497 155.726 67.2722C157.721 66.3947 159.495 65.0397 160.907 63.3146C162.426 61.195 163.352 58.6696 163.582 56.0238Z" fill="#E5E5E5"/>
<path d="M210.515 82.6363H195.364V0.76709H210.515V82.6363Z" fill="#E5E5E5"/>
<path d="M226.54 44.106V33.9937C226.54 23.3396 229.194 15.018 234.501 9.02887C239.808 3.03972 247.148 0.0300962 256.521 0C265.895 0 273.42 3.00962 279.098 9.02887C283.107 13.2574 285.105 19.5851 285.09 28.0121H270.924C270.924 18.8929 266.308 14.3333 257.078 14.3333C254.634 14.2479 252.211 14.8229 250.037 16.0037C248.345 16.9114 246.879 18.2258 245.757 19.841C244.649 21.8239 243.922 24.0174 243.617 26.2966C243.159 28.6406 242.865 31.0171 242.74 33.4068C242.74 35.3254 242.633 37.9212 242.633 41.1265C242.633 44.3317 242.633 46.4987 242.633 47.6273C242.633 48.7559 242.761 50.5391 242.954 53.022C243.007 54.8398 243.302 56.6407 243.831 58.3716C244.216 59.4551 244.794 60.832 245.565 62.5023C246.152 63.9792 247.162 65.226 248.454 66.0687C251.485 68.0907 255.011 69.1341 258.597 69.0708C261.388 69.2558 264.166 68.5408 266.563 67.0209C268.96 65.5009 270.861 63.2479 272.015 60.5611V55.031H262.62V41.6908H284.983V66.5202C282.9 71.9056 279.121 76.3695 274.283 79.1606C269.194 82.0612 263.482 83.5304 257.698 83.4267C246.727 83.4267 238.788 80.1839 233.88 73.6981C228.972 67.2124 226.526 57.3484 226.54 44.106Z" fill="#E5E5E5"/>
<path d="M318.668 82.6363H303.517V0.76709H318.668V82.6363Z" fill="#E5E5E5"/>
<path d="M389.972 15.0101H369.15V82.7266H353.999V15.0101H333.284V0.76709H389.972V15.0101Z" fill="#E5E5E5"/>
<path d="M460.915 82.6371H445.1L440.82 68.4843H414.691L410.411 82.6371H394.618L419.463 7.65232C420.209 5.54458 421.472 3.68314 423.122 2.25757C424.589 1.22574 426.325 0.704752 428.087 0.767834C429.763 0.68072 431.421 1.16338 432.817 2.14474C434.363 3.62381 435.483 5.53262 436.048 7.65232L460.915 82.6371ZM437.375 55.0313L428.216 22.6177L418.607 55.0313H437.375Z" fill="#E5E5E5"/>
<path d="M519.765 82.6363H496.632C487.915 82.6363 481.609 80.8531 477.714 77.2867C473.819 73.7203 471.879 67.9117 471.893 59.861V0.76709H487.044V59.861C486.908 61.0862 487.028 62.3282 487.398 63.4986C487.768 64.669 488.378 65.7391 489.184 66.6327C491.431 68.0933 494.07 68.7357 496.696 68.461H519.829L519.765 82.6363Z" fill="#E5E5E5"/>
<path d="M135.933 208.454H120.782V126.697H135.933V208.454Z" fill="#E5E5E5"/>
<path d="M217.275 126.697V200.283C217.339 202.652 216.577 204.965 215.135 206.783C214.533 207.614 213.759 208.289 212.873 208.758C211.987 209.227 211.012 209.478 210.021 209.492C204.999 209.492 200.89 206.422 197.694 200.283L170.88 156.019V208.567H155.729V126.697H170.324L202.167 180.284V126.697H217.275Z" fill="#E5E5E5"/>
<path d="M296.221 126.697V200.283C296.284 202.652 295.523 204.965 294.081 206.783C293.475 207.615 292.698 208.292 291.808 208.761C290.919 209.23 289.94 209.48 288.945 209.492C283.937 209.492 279.836 206.422 276.64 200.283L249.676 155.906V208.454H234.696V126.697H249.312L281.134 180.284V126.697H296.221Z" fill="#E5E5E5"/>
<path d="M371.653 163.716V169.923C371.653 183.647 369.199 193.616 364.291 199.831C359.384 206.046 351.537 209.153 340.751 209.153C329.923 209.153 322.076 206.046 317.211 199.831C312.346 193.616 309.885 183.534 309.828 169.584V163.603C309.828 150.872 312.282 141.407 317.19 135.207C322.098 129.007 329.88 125.9 340.537 125.885C351.18 125.885 359.027 129.03 364.077 135.32C369.128 141.61 371.653 151.075 371.653 163.716ZM356.502 169.584V165.341C356.716 159.349 355.83 153.371 353.891 147.735C351.751 142.678 347.471 140.15 340.794 140.15C334.117 140.15 329.645 142.678 327.612 147.735C325.708 153.378 324.857 159.357 325.108 165.341V169.584C325.108 179.471 326.413 186.152 329.024 189.583C330.224 191.195 331.772 192.48 333.539 193.33C335.809 194.336 338.247 194.854 340.708 194.854C343.17 194.854 345.608 194.336 347.878 193.33C349.648 192.485 351.214 191.227 352.457 189.651C353.659 187.932 354.518 185.974 354.982 183.895C356.054 179.212 356.529 174.4 356.395 169.584H356.502Z" fill="#E5E5E5"/>
<path d="M436.583 133.649C441.063 138.36 443.296 145.282 443.281 154.416C443.267 163.55 441.034 170.465 436.583 175.16C432.118 179.885 425.812 182.24 417.665 182.225H402.685V208.454H387.534V126.697H417.665C425.797 126.697 432.103 129.015 436.583 133.649ZM428.13 154.416C428.13 145.387 424.385 140.873 416.895 140.873H402.728V167.959H416.895C418.414 168.069 419.938 167.849 421.374 167.313C422.809 166.777 424.125 165.937 425.241 164.844C427.167 162.677 428.13 159.224 428.13 154.416Z" fill="#E5E5E5"/>
<path d="M515.679 163.716V169.923C515.679 183.647 513.225 193.616 508.317 199.831C503.41 206.046 495.563 209.153 484.777 209.153C473.949 209.153 466.102 206.046 461.237 199.831C456.373 193.616 453.954 183.534 453.983 169.584V163.603C453.983 150.872 456.437 141.407 461.345 135.207C466.252 129.007 474.028 125.9 484.671 125.885C495.299 125.885 503.146 129.03 508.21 135.32C513.275 141.61 515.765 151.075 515.679 163.716ZM500.528 169.584V165.341C500.742 159.349 499.856 153.371 497.917 147.735C495.891 142.678 491.526 140.15 484.82 140.15C478.079 140.15 473.671 142.678 471.638 147.735C469.734 153.378 468.884 159.357 469.134 165.341V169.584C469.134 179.471 470.44 186.152 473.05 189.583C474.253 191.201 475.81 192.487 477.587 193.33C479.838 194.428 482.299 194.961 484.777 194.888C487.236 194.962 489.678 194.452 491.925 193.398C493.693 192.548 495.258 191.291 496.505 189.719C497.706 188.003 498.559 186.043 499.009 183.963C500.122 179.263 500.633 174.427 500.528 169.584Z" fill="#E5E5E5"/>
<path d="M579.577 208.454H556.465C547.734 208.454 541.428 206.67 537.547 203.104C533.667 199.538 531.72 193.729 531.705 185.678V126.697H546.856V185.791C546.724 187.016 546.847 188.257 547.217 189.427C547.586 190.596 548.194 191.667 548.996 192.563C551.251 194.024 553.896 194.666 556.529 194.391H579.641L579.577 208.454Z" fill="#E5E5E5"/>
<path d="M609.557 208.454H594.406V126.697H609.557V208.454Z" fill="#E5E5E5"/>
<path d="M682.703 184.302C682.846 187.802 682.188 191.287 680.784 194.462C679.379 197.636 677.27 200.408 674.635 202.54C668.674 207.143 661.408 209.475 654.027 209.154C647.229 209.126 640.569 207.135 634.767 203.398C631.612 201.302 629.019 198.387 627.234 194.933C625.238 191.123 624.227 186.826 624.303 182.474L638.041 181.774C637.99 183.708 638.427 185.621 639.307 187.318C640.187 189.016 641.478 190.436 643.049 191.435C646.35 193.727 650.225 194.93 654.177 194.888C663.251 194.888 667.787 191.503 667.787 184.776C667.787 179.246 664.706 175.995 658.521 174.98L645.874 173.603C640.295 172.942 635.054 170.447 630.894 166.47C627.199 162.723 625.351 157.321 625.351 150.263C625.295 146.9 625.984 143.57 627.362 140.537C628.74 137.505 630.77 134.853 633.291 132.792C639.006 128.044 646.136 125.596 653.407 125.885C660.459 125.523 667.403 127.828 672.988 132.386C675.362 134.382 677.266 136.931 678.551 139.832C679.835 142.734 680.466 145.91 680.392 149.112L666.889 149.812C665.647 143.13 661.367 139.79 654.049 139.79C650.357 139.568 646.699 140.622 643.627 142.792C642.503 143.559 641.573 144.603 640.917 145.834C640.261 147.065 639.898 148.445 639.86 149.857C639.812 151.083 640.034 152.305 640.509 153.425C640.984 154.545 641.7 155.534 642.6 156.312C644.538 157.939 646.877 158.949 649.341 159.224L661.774 160.624C675.741 162.61 682.717 170.503 682.703 184.302Z" fill="#E5E5E5"/>
<path d="M179.332 292.987L179.439 301.835C179.27 306.612 178.618 311.357 177.492 315.988C176.384 319.971 174.312 323.581 171.479 326.461C166.542 331.728 159.352 334.361 149.907 334.361C138.779 334.361 131.147 332.811 127.009 329.712C122.872 326.612 120.796 320.991 120.782 312.85V252.402H150.977C159.709 252.402 166.542 255.005 171.479 260.212C175.44 264.347 177.94 269.787 178.562 275.629C179.147 281.393 179.404 287.19 179.332 292.987ZM163.582 307.659C164.065 302.823 164.265 297.961 164.181 293.099C164.271 288.321 164.071 283.541 163.582 278.789C163.33 276.217 162.404 273.771 160.907 271.724C159.52 270.007 157.773 268.654 155.804 267.773C153.835 266.891 151.699 266.505 149.565 266.645H135.933V311.97C135.805 313.21 136.015 314.464 136.538 315.583C137.061 316.702 137.876 317.641 138.886 318.29C142.227 319.698 145.828 320.285 149.415 320.006C151.571 320.161 153.732 319.785 155.726 318.907C157.721 318.029 159.495 316.674 160.907 314.949C162.426 312.83 163.352 310.304 163.582 307.659Z" fill="#E5E5E5"/>
<path d="M255.454 334.362H239.639L235.359 320.209H209.23L204.95 334.362H189.135L214.002 259.377C214.748 257.269 216.011 255.408 217.661 253.982C219.128 252.95 220.864 252.429 222.626 252.492C224.302 252.405 225.96 252.888 227.356 253.869C228.902 255.345 230.015 257.256 230.566 259.377L255.454 334.362ZM231.807 306.756L222.648 274.342L213.039 306.756H231.807Z" fill="#E5E5E5"/>
<path d="M315.759 252.402L292.476 300.684V334.361H277.496V300.684L254.17 252.402H270.626L285.135 285.402L299.409 252.402H315.759Z" fill="#E5E5E5"/>
<path d="M382.634 310.119C382.771 313.618 382.111 317.101 380.707 320.275C379.303 323.449 377.197 326.221 374.566 328.357C368.605 332.96 361.339 335.292 353.958 334.971C347.161 334.936 340.502 332.946 334.698 329.215C331.553 327.112 328.968 324.199 327.186 320.75C325.176 316.945 324.157 312.646 324.233 308.291L337.972 307.591C337.921 309.527 338.36 311.443 339.244 313.141C340.128 314.839 341.424 316.258 343.001 317.252C346.295 319.541 350.162 320.743 354.107 320.705C363.209 320.705 367.753 317.334 367.739 310.593C367.739 305.063 364.658 301.812 358.473 300.797L345.826 299.42C340.245 298.764 335.003 296.268 330.846 292.287C327.136 288.54 325.282 283.138 325.282 276.08C325.231 272.716 325.925 269.386 327.307 266.353C328.688 263.321 330.721 260.67 333.242 258.609C338.956 253.858 346.088 251.409 353.358 251.702C360.411 251.34 367.355 253.645 372.939 258.203C375.314 260.199 377.218 262.747 378.503 265.649C379.787 268.551 380.417 271.727 380.344 274.929L366.819 275.629C365.599 268.857 361.341 265.629 353.979 265.629C350.297 265.404 346.646 266.45 343.579 268.609C342.452 269.373 341.521 270.417 340.864 271.648C340.208 272.88 339.847 274.262 339.812 275.674C339.759 276.898 339.977 278.119 340.449 279.24C340.921 280.36 341.633 281.35 342.53 282.129C344.48 283.754 346.823 284.771 349.292 285.064L361.726 286.441C375.679 288.427 382.648 296.32 382.634 310.119Z" fill="#E5E5E5"/>
<path d="M42.2024 281.633H35.1404C33.5992 281.505 32.0492 281.701 30.58 282.208C29.1108 282.716 27.7514 283.525 26.5804 284.59C25.6295 285.646 24.8924 286.895 24.4141 288.261C23.9358 289.627 23.7263 291.081 23.7984 292.535V300.797H53.5872V292.535C53.6565 291.08 53.4437 289.624 52.9617 288.258C52.4797 286.892 51.7386 285.644 50.7838 284.59C49.6122 283.519 48.2495 282.706 46.7759 282.198C45.3023 281.691 43.7474 281.498 42.2024 281.633Z" fill="#9681F2"/>
<path d="M45.7988 44.2188H24.4844V44.7605L45.7988 58.3038V44.2188Z" fill="#9681F2"/>
<path d="M0 0.76709V334.361H77.6178V0.76709H0ZM16.264 35.7539H45.796V29.6369H52.4086V35.7991H61.0756V44.2636H52.4086V65.6621H45.154L16.264 46.8369V35.7539ZM45.0256 73.6074V108.639H38.092V73.6074H45.0256ZM16.4138 128.255C17.0139 126.433 17.9689 124.765 19.2172 123.357C20.4183 122.026 21.8785 120.987 23.4972 120.309C26.8699 118.97 30.5891 118.97 33.9618 120.309C35.4889 120.966 36.9278 121.831 38.2418 122.882C39.6796 124.011 41.0124 125.28 42.2222 126.675C43.4848 128.119 44.7688 129.654 46.0528 131.189L53.821 141.143V118.029H60.9472V150.804H53.1148L40.7884 135.974C39.1282 133.87 37.2145 132.003 35.096 130.422C33.4779 129.27 31.5696 128.657 29.6176 128.661H28.783C27.9293 128.606 27.0751 128.761 26.2877 129.113C25.5004 129.466 24.8016 130.006 24.2462 130.692C23.2206 132.139 22.7196 133.924 22.8338 135.726C22.7639 136.745 22.9016 137.767 23.2375 138.725C23.5734 139.683 24.0997 140.553 24.7812 141.279C26.1308 142.566 27.7522 143.495 29.5106 143.987L26.6644 151.527C25.1569 151.027 23.718 150.321 22.3844 149.427C21.0245 148.513 19.823 147.361 18.832 146.019C17.7643 144.559 16.9394 142.918 16.3924 141.166C15.1376 136.933 15.1376 132.397 16.3924 128.164L16.4138 128.255ZM61.0114 309.735H16.264V292.535C16.2301 289.682 16.7094 286.848 17.6764 284.183C18.6084 281.716 20.074 279.513 21.9564 277.75C23.9858 275.867 26.3709 274.459 28.9542 273.619C35.3495 271.664 42.1399 271.664 48.5352 273.619C51.1185 274.459 53.5036 275.867 55.533 277.75C57.4142 279.515 58.8796 281.717 59.813 284.183C60.78 286.848 61.2593 289.682 61.2254 292.535L61.0114 309.735ZM61.0114 259.692H16.264V228.543H23.7754V250.844H34.6252V231.206H42.0938V250.844H53.5214V228.633H61.0328L61.0114 259.692ZM60.3908 205.7C59.4644 208.17 57.9979 210.374 56.1108 212.133C54.017 214.007 51.5752 215.398 48.9418 216.218C45.7269 217.222 42.3857 217.701 39.0336 217.64C35.6327 217.694 32.2431 217.215 28.9756 216.218C26.2755 215.404 23.7626 214.013 21.5926 212.133C19.6335 210.388 18.0873 208.185 17.0772 205.7C16.0193 203.027 15.4948 200.154 15.5364 197.258C15.4019 193.548 16.2942 189.878 18.1044 186.694C20.0141 183.688 22.7138 181.334 25.8726 179.922L29.7246 187.574C27.8363 188.164 26.1495 189.316 24.8668 190.892C23.5684 192.696 22.9234 194.929 23.0478 197.19C22.9842 198.687 23.2395 200.18 23.795 201.559C24.3505 202.937 25.1921 204.167 26.2578 205.158C28.8124 207.263 32.0103 208.307 35.2458 208.092H42.3078C45.5323 208.326 48.723 207.28 51.253 205.158C52.2948 204.152 53.1146 202.917 53.6545 201.54C54.1943 200.163 54.4411 198.678 54.3774 197.19C54.448 194.812 53.6862 192.49 52.2374 190.667C50.8853 188.983 49.1357 187.706 47.1656 186.965L51.2102 179.719C54.3205 181.224 57.0053 183.558 58.9998 186.491C60.95 189.646 61.9291 193.359 61.8032 197.122C61.8706 200.052 61.3907 202.966 60.3908 205.7Z" fill="#9681F2"/>
<path d="M471.978 334.361H434.763C431.911 334.459 429.086 333.741 426.589 332.285C425.466 331.585 424.554 330.566 423.956 329.344C423.358 328.122 423.098 326.748 423.207 325.378C423.264 322.521 424.22 319.765 425.925 317.545C426.589 316.71 427.68 315.401 429.199 313.64L440.884 299.939C443.775 296.961 446.437 293.746 448.845 290.323C450.813 287.464 452.24 285.297 453.125 283.822C453.918 282.61 454.633 281.343 455.265 280.03C456.369 277.953 457.006 275.636 457.126 273.258C457.059 271.246 456.342 269.319 455.093 267.796C453.745 265.99 451.327 265.087 447.796 265.087C446.416 264.921 445.019 265.131 443.738 265.696C442.457 266.261 441.334 267.163 440.477 268.315C438.996 271.058 438.298 274.193 438.466 277.344H424.299C424.248 273.958 424.535 270.577 425.155 267.254C425.777 264.384 426.926 261.669 428.536 259.264C431.817 254.117 438.587 251.544 448.845 251.544C456.477 251.544 462.369 253.199 466.521 256.51C468.575 258.153 470.217 260.303 471.303 262.77C472.388 265.237 472.885 267.947 472.748 270.663C472.699 274.697 471.861 278.677 470.287 282.355C468.964 285.812 467.224 289.074 465.109 292.061C463.282 294.514 461.142 297.245 458.689 300.255C456.206 303.234 454.751 305.04 454.409 305.649L441.975 320.818H471.935L471.978 334.361Z" fill="#9681F2"/>
<path d="M541.184 291V295.718C541.184 301.376 540.999 306.131 540.628 309.984C540.311 313.662 539.593 317.29 538.488 320.796C537.606 323.822 536.034 326.573 533.908 328.809C531.697 330.908 529.063 332.452 526.204 333.323C522.47 334.491 518.586 335.039 514.691 334.948C510.794 335.038 506.908 334.474 503.178 333.278C500.339 332.375 497.718 330.835 495.495 328.764C493.34 326.568 491.744 323.836 490.852 320.818C489.751 317.288 489.033 313.639 488.712 309.938C488.341 306.101 488.162 301.301 488.177 295.537V291.181C488.177 279.353 489.047 270.64 490.787 265.042C491.653 262.056 493.238 259.357 495.388 257.21C499.526 253.538 505.946 251.695 514.648 251.68C524.835 251.68 531.804 254.599 535.556 260.438C539.308 266.276 541.184 276.464 541.184 291ZM526.547 299.284V286.509C526.547 278.902 525.669 273.575 524.15 270.505C522.631 267.435 519.463 265.99 514.648 265.99C509.833 265.99 506.688 267.503 505.168 270.505C503.649 273.507 502.836 278.744 502.75 286.102V299.352C502.75 307.568 503.585 313.189 505.04 316.214C506.495 319.238 509.748 320.728 514.755 320.728C519.763 320.728 522.994 319.283 524.364 316.349C525.734 313.415 526.483 307.726 526.547 299.284Z" fill="#9681F2"/>
<path d="M604.594 334.361H567.379C564.52 334.461 561.688 333.743 559.183 332.285C558.064 331.581 557.155 330.561 556.557 329.34C555.96 328.12 555.698 326.747 555.802 325.377C555.858 322.521 556.814 319.765 558.52 317.545C559.183 316.71 560.275 315.401 561.794 313.64L573.478 299.939C576.381 296.973 579.044 293.757 581.439 290.323C583.408 287.464 584.835 285.297 585.719 283.822C586.528 282.621 587.243 281.353 587.859 280.03C588.964 277.953 589.601 275.636 589.721 273.258C589.662 271.249 588.952 269.321 587.709 267.796C586.368 265.99 583.929 265.087 580.391 265.087C579.011 264.921 577.614 265.131 576.333 265.696C575.052 266.261 573.929 267.163 573.072 268.315C571.591 271.058 570.892 274.193 571.06 277.344H556.765C556.71 273.957 557.004 270.574 557.642 267.254C558.255 264.38 559.405 261.664 561.024 259.264C564.291 254.117 571.053 251.544 581.311 251.544C588.958 251.544 594.857 253.199 599.009 256.51C601.058 258.157 602.694 260.308 603.776 262.774C604.858 265.241 605.351 267.949 605.215 270.663C605.16 274.694 604.33 278.672 602.775 282.355C601.437 285.809 599.69 289.07 597.575 292.061C595.749 294.514 593.609 297.245 591.155 300.255C588.694 303.234 587.239 305.04 586.875 305.649L574.57 320.818H604.53L604.594 334.361Z" fill="#9681F2"/>
<path d="M651.845 334.361H637.015V267.051L627.535 263.349V252.199H640.375C645.19 252.199 648.293 253.124 649.705 254.953C651.118 256.781 651.845 260.438 651.845 265.9V334.361Z" fill="#9681F2"/>
</svg>
