<svg width="77" height="39" viewBox="0 0 77 39" fill="none" xmlns="http://www.w3.org/2000/svg">
<path fill-rule="evenodd" clip-rule="evenodd" d="M25.1497 19.0727C27.2848 22.1154 29.4316 25.1499 31.5901 28.1761C31.6954 28.313 31.7378 28.8406 31.3048 28.8406L26.7647 28.8723C26.2894 28.8723 25.8354 28.4923 25.6033 28.218L22.7737 24.7366L20.1026 21.4348L20.0923 28.1547C20.0923 28.4397 19.8392 28.8616 19.5432 28.8723L15.3625 28.8933C15.0665 28.8933 14.6443 28.4294 14.6443 28.1234V11.9934C14.6443 11.8248 13.8845 11.6982 13.8948 11.0863C13.9051 10.4641 14.2113 10.3374 14.5492 10.3374H19.4276C19.6914 10.3374 20.1244 10.6014 20.1244 11.0127L20.1034 17.047L22.7745 13.5553L24.6958 11.055C24.9703 10.7071 25.6037 10.3062 25.9206 10.3062L30.1755 10.3379C30.6187 10.3379 30.8723 10.6964 30.6611 11.0131L25.1497 19.0727ZM40.8176 10.3383C41.1872 10.3383 41.5354 10.6019 41.5354 11.0131V28.1555C41.5354 28.5569 41.409 28.8414 40.9341 28.8414L38.358 28.8624L36.6265 28.8731C36.2569 28.8731 35.9927 28.5881 35.9927 28.1555V11.8783C35.9927 11.8676 35.3062 11.6883 35.2008 11.0345C35.2959 10.6759 35.4226 10.3383 35.9927 10.3383H40.8176ZM55.5038 2.0253C68.2269 5.21108 77.0008 11.8573 77 19.5053C77 27.1538 68.226 33.7996 55.5034 36.9854C50.3723 38.2828 44.5975 39 38.4946 39H38.3576C32.8248 39 27.5459 38.3885 22.7737 37.3016C9.37569 34.2425 0 27.4071 0 19.5053C0 11.604 9.37569 4.76818 22.7741 1.70865C27.5463 0.622187 32.8256 0.0102819 38.358 0.0102819C38.4103 0.0102819 38.4527 0 38.4951 0C44.5979 0 50.3727 0.727876 55.5038 2.0253ZM55.5038 32.7341C66.6213 30.1812 74.1918 25.2017 74.1918 19.5053C74.1918 13.809 66.6213 8.82988 55.5038 6.27698C50.4468 5.10621 44.6502 4.44167 38.4951 4.44167H38.358C32.7832 4.45195 27.4936 5.01122 22.7741 5.99241C10.9594 8.45031 2.80859 13.5878 2.80859 19.5058C2.80859 25.4237 10.9594 30.5612 22.7741 33.0191C27.4936 34.0003 32.7832 34.5596 38.358 34.5596C38.4103 34.5596 38.4527 34.5699 38.4951 34.5699C44.6502 34.5699 50.4468 33.9053 55.5038 32.7341ZM58.8294 11.0345L64.6581 28.1979C64.7318 28.4088 64.4568 28.8731 64.2247 28.8731L60.2337 28.8414C59.9702 28.8414 59.4743 28.4512 59.4002 28.2086L55.8417 17.3008C55.8104 17.1951 55.652 17.1424 55.5042 17.1424C55.4096 17.1424 55.3145 17.1848 55.2824 17.2584C54.6811 19.0727 54.0683 20.8871 53.4558 22.7018L51.64 28.1448C51.5025 28.5565 51.0271 28.841 50.6896 28.841L46.857 28.8727C46.5191 28.8727 46.2767 28.3665 46.3714 28.0922L51.8721 11.8783C51.9252 11.7414 50.9534 11.7726 50.9637 10.8445C50.9637 10.5282 51.2807 10.3383 51.5128 10.3383H58.0375C58.3968 10.3383 58.6717 10.6755 58.8294 11.0345Z" fill="white"/>
</svg>
