<svg width="98" height="39" viewBox="0 0 98 39" fill="none" xmlns="http://www.w3.org/2000/svg">
<path fill-rule="evenodd" clip-rule="evenodd" d="M81.7641 20.8231C81.6843 25.1729 82.6347 27.4768 86.2624 27.4768C89.8841 27.4768 90.4038 23.5521 90.4038 20.5655C90.4038 17.5771 89.7165 14.6759 85.9115 14.6759C83.5772 14.6759 81.8538 16.4688 81.7641 20.8231ZM74.4251 39V9.55622H81.8537V10.7505C81.8537 12.3437 82.5039 11.6867 83.0276 11.0659C83.1153 10.9621 84.7709 8.95902 88.4995 8.95902C92.2169 8.95902 98 11.5186 98 20.5656C98 27.5636 94.5499 32.6833 88.5913 32.6833C85.308 32.6833 83.4098 31.4055 82.9757 30.8898C82.541 30.3812 81.9375 30.2925 81.9375 30.8898V38.9999L74.4251 39ZM17.0077 0H25.0379V20.8231C25.0379 24.4049 23.4819 31.9172 12.3457 31.9172C1.20828 31.9172 0 24.9154 0 20.9926V17.1527H7.77104V20.9059C7.77104 23.2099 9.32561 25.3424 12.2594 25.3424C15.1945 25.3424 17.0077 23.7216 17.0077 20.9926V0ZM41.8315 17.6645C41.8315 15.5286 40.6252 13.4808 37.8622 13.4808C35.1857 13.4808 34.2353 15.3565 34.2353 17.6645H41.8315ZM37.0879 8.70284C43.3941 8.70284 48.9173 11.0915 48.9173 22.1009H33.982C33.982 25.5999 35.4482 27.0511 38.0383 27.0511C40.6291 27.0511 41.4919 25.0014 41.4919 25.0014H48.8328C48.8328 28.1601 44.4289 32.4271 37.7792 32.3423C30.1835 32.3423 26.4702 26.7949 26.4702 21.0767C26.4702 15.3565 29.7488 8.70284 37.0879 8.70284ZM65.7076 17.6645C65.7076 15.5286 64.4999 13.4808 61.737 13.4808C59.0618 13.4808 58.1093 15.3565 58.1093 17.6645H65.7076ZM60.9639 8.70284C67.2695 8.70284 72.7913 11.0915 72.7913 22.1009H57.8567C57.8567 25.5999 59.3242 27.0511 61.9164 27.0511C64.5045 27.0511 65.3685 25.0014 65.3685 25.0014H72.7095C72.7095 28.1601 68.3049 32.4271 61.6572 32.3423C54.0575 32.3423 50.3442 26.7949 50.3442 21.0767C50.3442 15.3565 53.6269 8.70284 60.9639 8.70284Z" fill="white"/>
</svg>
