<svg width="105" height="39" viewBox="0 0 105 39" fill="none" xmlns="http://www.w3.org/2000/svg">
<path d="M68.4655 22.31C69.6839 20.8468 71.174 19.8494 72.3598 19.9822C73.814 20.1481 73.9503 21.5451 73.2392 22.8412L73.6119 22.9415C73.6119 22.9415 72.4608 24.8367 71.276 26.0006C69.177 28.0947 67.8223 27.3964 67.5175 27.1639C67.2128 26.9313 66.9759 26.1003 67.1106 25.2687C67.2127 24.4377 67.856 23.0412 68.4655 22.31Z" fill="white"/>
<path fill-rule="evenodd" clip-rule="evenodd" d="M3.65702 19.5165C3.65758 28.4275 25.4969 35.6423 52.5169 35.6423C79.5032 35.6423 101.41 28.4275 101.41 19.5165C101.41 10.6397 79.5032 3.42497 52.5169 3.42497C25.4969 3.42497 3.65702 10.6397 3.65702 19.5165ZM50.3602 9.40867C49.5026 9.12727 48.7472 8.87938 48.1299 8.71497C48.2275 8.80552 48.2954 8.9528 48.2173 9.14409C48.183 9.21077 47.8446 9.57613 47.7099 9.67588C47.6126 9.76187 47.4816 9.86572 47.3214 9.99284C46.3665 10.7504 44.3697 12.3346 42.2244 15.8932C44.256 15.7934 46.6261 15.3944 46.6261 15.3944C46.6261 15.3944 46.4909 14.9624 46.4909 14.5965C46.5925 13.167 47.4388 12.3023 48.5225 12.4688C49.1326 12.5685 49.5384 13.0672 49.5384 13.599C49.5384 14.1644 49.0984 14.9955 48.6578 15.3944C48.3525 15.6264 48.0135 15.8596 47.6078 16.0591C47.6078 16.425 48.1151 16.7242 48.5557 16.7578C48.5274 16.8597 48.5095 16.9461 48.4949 17.0171C48.4571 17.2005 48.4406 17.2804 48.3188 17.2566C47.3029 17.2566 46.8967 16.2922 46.8967 16.2922C45.543 16.5247 44.2224 16.6911 41.547 16.9573C34.8088 27.6632 32.7098 29.4255 28.5786 29.4255C25.6327 29.4255 23.0257 27.5304 22.9578 24.139C22.9236 22.078 24.6168 19.5507 27.7659 18.7858C28.1385 18.7858 28.2738 18.9192 28.2738 19.1187C28.2738 19.252 28.1385 19.4179 27.8332 19.5507C26.919 19.8836 25.3279 21.6454 25.3279 23.2749C25.3279 24.5049 26.1069 25.8683 27.4269 26.167C27.7251 26.2472 28.0017 26.2417 28.2738 26.2363C28.3417 26.235 28.4094 26.2337 28.477 26.2337C31.7613 26.2337 35.452 22.6098 39.4474 17.0907C38.8042 17.1237 36.0615 17.4235 35.3841 18.1879C35.0799 18.4204 34.8767 18.2876 34.8088 18.0214C34.8088 17.9548 34.9104 17.7222 35.0126 17.5889C35.9978 16.5001 38.7763 16.1819 39.8565 16.0582C39.9639 16.0459 40.0544 16.0356 40.1248 16.0265C43.0281 11.6553 46.7302 8.85309 47.7767 8.62682C47.7542 8.62164 47.7319 8.61661 47.7099 8.61174C45.1024 8.01327 42.7323 7.51454 40.8696 7.51454C34.3346 7.51454 31.4223 10.2743 31.5581 12.8011C31.626 13.8316 32.4718 14.4967 33.725 14.2636C35.0799 14.0311 36.9757 12.7674 37.4499 11.6702C37.5515 11.4377 37.8226 11.4041 37.9242 11.4708C38.1274 11.6372 38.0594 11.8697 38.0594 11.8697C37.89 13.1664 35.8583 16.7573 32.3371 16.7573C30.3733 16.7573 29.0528 14.9618 29.0865 13.1995C29.1201 9.90788 32.5402 6.58321 40.9711 6.58321C42.5622 6.58321 44.3571 6.71602 46.3214 7.04887C48.5894 7.44786 54.2438 8.37864 58.8487 8.44532C59.1229 8.44532 59.4093 8.44706 59.7045 8.44886C61.2332 8.45818 62.9944 8.46892 64.47 8.24582C65.3599 8.10282 65.7317 8.01293 65.9587 7.95805C66.2067 7.89808 66.2819 7.87991 66.6711 7.87991C67.3479 7.87991 67.3479 8.14608 67.3479 8.41225C67.3479 9.47639 63.5552 11.5044 60.3382 11.5044C56.7468 11.5044 53.0507 10.2916 50.3602 9.40867ZM65.227 22.8212C65.2573 22.7943 65.2872 22.7677 65.3169 22.7415C65.7963 22.2983 66.2317 21.8509 66.6505 21.4204C68.2428 19.784 69.5961 18.3931 72.224 18.4193C74.0163 18.449 74.6088 19.7104 74.9561 20.4497C74.9959 20.5343 75.0324 20.6121 75.0672 20.6804L79.4352 13.4326H82.1101L74.8645 26.0336C74.8393 26.0829 74.8073 26.1402 74.7718 26.2033C74.6159 26.4808 74.3961 26.872 74.424 27.1969C74.493 27.8285 75.3052 27.6626 75.0004 27.6626C76.4562 27.5959 79.1306 24.8697 79.7743 24.2051L79.7828 24.1945C79.9188 24.0258 80.1498 23.7395 80.2817 23.7395C80.4175 23.7395 80.6885 23.8723 80.6885 24.0718C80.6885 24.2051 80.3837 24.7033 80.1469 25.0025C78.792 26.6652 76.5578 29.2249 74.0182 29.2916C72.7655 29.2916 72.2908 28.7929 72.1218 27.829C71.5466 28.3272 69.5823 29.1919 67.5849 29.1919C65.9253 29.1588 65.2479 28.1944 64.91 27.4301C64.6053 26.7985 64.4695 25.8677 64.7063 24.937C63.792 25.4026 62.9456 25.4688 61.7267 25.4357C60.3039 25.4021 59.4234 24.7705 58.9839 23.141C58.6127 23.8093 58.3227 24.3301 58.0764 24.7725C57.2443 26.2669 56.9114 26.8651 55.6317 29.2255H52.7537L56.4443 23.0749C56.9191 22.2433 57.156 21.5787 57.3244 20.881C57.4265 20.4815 57.1217 20.1156 56.6811 20.083C56.2075 20.083 55.4297 20.5487 54.6838 21.2464C54.6838 21.2464 52.788 23.2413 51.3995 25.2693C50.0783 27.198 47.8104 29.3919 45.3387 29.3919C43.5439 29.3919 41.9185 28.4281 41.5801 26.566C41.5801 26.566 41.4105 26.998 39.8189 27.8957C39.797 27.9064 39.7698 27.9206 39.7392 27.9366C39.5803 28.0195 39.3289 28.1506 39.2442 28.0952C38.9389 27.8296 38.77 27.4967 38.7357 27.2636C38.8301 27.2948 39.0119 27.1536 39.5521 26.7341C39.5938 26.7018 39.6376 26.6678 39.6837 26.6321C40.9363 25.7013 41.2074 24.9689 41.2074 24.9689C41.4522 24.4606 41.8517 23.7151 42.1923 23.0794C42.2748 22.9254 42.3538 22.7779 42.4264 22.6417C43.4428 20.6468 45.2029 18.6188 48.0809 18.5191C48.5551 18.5191 48.6904 18.7186 48.792 18.885C49.0625 19.0845 48.9614 19.4835 48.9614 19.4835C46.9298 19.7827 45.5418 20.946 44.6949 22.0769C44.1876 22.8081 43.6454 24.0051 43.5438 24.8692C43.3406 26.3654 44.0517 27.3623 45.1012 27.5954C47.065 27.8946 48.6903 26.4982 49.9772 24.3374C50.3162 23.772 50.5531 22.3089 50.5531 21.5109C50.5531 20.7129 50.1125 19.8819 49.774 19.549C49.774 18.9842 50.1462 18.6183 50.5862 18.6183C50.7215 18.6183 50.8573 18.6183 50.9925 18.7511C51.6699 19.4162 52.0426 20.6799 52.0426 21.6437C52.0426 21.9766 52.0426 22.3089 51.9747 22.6417C52.0328 22.5724 52.0915 22.5023 52.1509 22.4314C53.5428 20.7696 55.2479 18.734 56.5802 18.3196C56.8507 18.1868 57.1217 18.1868 57.3922 18.1868C59.9318 18.1201 59.5934 20.3812 59.5934 20.3812C60.9471 18.8519 61.8956 18.2865 63.1483 18.3526C64.5031 18.4193 64.9767 19.3507 64.9767 20.0819C64.9425 20.946 64.3005 21.9435 63.1837 21.9766C62.2004 21.9766 61.6251 21.5109 61.3204 20.6468C60.6772 20.8799 60.373 21.312 60.2372 22.1761C60.0335 23.2733 60.8803 24.1379 61.9635 24.1379C63.7446 24.1384 64.5662 23.4084 65.227 22.8212Z" fill="white"/>
<path fill-rule="evenodd" clip-rule="evenodd" d="M0 19.5165C0 30.2891 23.4994 39 52.5169 39C81.5006 39 105 30.2885 105 19.5165C105 8.74455 81.5006 0 52.5169 0C23.4994 0 0 8.74455 0 19.5165ZM103.001 19.5165C103.001 29.2249 80.4174 37.0051 52.5169 37.0051C24.6842 37.0051 2.06592 29.2249 2.06592 19.5165C2.06592 9.84175 24.6842 1.96185 52.5169 1.96185C80.4174 1.96185 103.001 9.84175 103.001 19.5165Z" fill="white"/>
</svg>
