<svg width="123" height="26" viewBox="0 0 123 26" fill="none" xmlns="http://www.w3.org/2000/svg">
<path d="M118.324 3.2958C120.82 3.2958 122.842 2.55814 122.842 1.6479C122.842 0.738293 120.82 0 118.324 0C115.827 0 113.804 0.737654 113.804 1.6479C113.804 2.5575 115.827 3.2958 118.324 3.2958Z" fill="white"/>
<path fill-rule="evenodd" clip-rule="evenodd" d="M91.1276 21.9788V11.58C91.1276 9.9852 91.0559 8.32196 89.3439 7.14324C87.7176 6.02265 85.1238 6.03037 83.9529 6.03386C83.8922 6.03404 83.8353 6.0342 83.7825 6.0342C82.7129 6.0342 79.1482 6.0342 77.5072 7.83679C76.0516 9.43706 76.1126 10.9824 76.1446 11.794C76.1486 11.8966 76.1522 11.9874 76.1522 12.0652H80.8234C80.8234 12.0652 81.1429 9.70842 81.7852 9.08454C82.4308 8.45683 84.1389 7.76711 85.4578 8.87615C85.9429 9.28525 86.1343 9.81196 86.1343 10.4013V13.382C86.1343 13.6601 85.8489 14.0755 85.4932 14.0755C85.4932 14.0755 79.0036 14.2143 77.8636 15.0465C77.805 15.0893 77.7467 15.1313 77.689 15.1729L77.6881 15.1736C76.623 15.9421 75.7242 16.5906 75.7242 19.4833C75.7242 22.533 76.5086 23.7117 77.4362 24.3362C77.5397 24.4059 77.637 24.4764 77.734 24.5468C78.5059 25.1063 79.2608 25.6537 82.9975 25.6537H92.9803V23.6427C92.1256 23.6427 91.1276 22.9498 91.1276 21.9788ZM85.6372 23.573C85.8502 23.573 86.1356 23.3308 86.1356 23.1575V17.5062C86.1356 16.9169 85.9219 16.0162 84.8167 16.0162L84.733 16.0161C83.5776 16.0144 80.9312 16.0105 80.9312 18.5462V21.2156C80.9312 22.1175 81.4296 23.573 83.1771 23.573H85.6372Z" fill="white"/>
<path fill-rule="evenodd" clip-rule="evenodd" d="M33.9414 19.8298H28.9501V21.702C28.9501 22.464 28.8074 24.0595 26.4544 24.0595C24.1014 24.0595 23.3887 22.5336 23.3887 21.4246V17.473C23.3887 17.1265 23.674 16.6407 24.173 16.6407H33.9414V11.58C33.9414 9.29229 33.4424 8.59873 32.4438 7.6284C31.4458 6.65743 27.9514 6.38065 26.3827 6.38065C22.39 6.38065 21.1061 6.93486 19.9654 7.83616C18.8247 8.73745 18.3967 10.6091 18.3967 11.9955V19.8291C18.3967 21.9085 18.8247 23.3646 20.179 24.6821C21.5334 25.9995 25.6694 25.9995 26.5254 25.9995L26.637 25.9997C27.6067 26.0026 30.3151 26.0105 32.3011 24.613C34.3694 23.1575 33.9414 19.8298 33.9414 19.8298ZM26.2407 8.46067C23.7451 8.46067 23.3887 10.1246 23.3887 11.2336V13.7988C23.3887 14.2143 23.8167 14.5607 24.244 14.5607H28.0947C28.5937 14.5607 28.9501 14.1446 28.9501 13.7291V11.2336C28.9501 10.2633 28.7364 8.46067 26.2407 8.46067Z" fill="white"/>
<path d="M44.0523 6.93485C44.0523 7.48969 44.765 8.04389 45.193 8.18261C45.692 7.83615 48.3303 6.38065 50.398 6.38065C52.4657 6.38065 53.5354 7.42002 53.5354 9.01486V16.6407H48.5447V10.7484C48.5447 9.98583 48.3303 9.43099 47.6177 9.36196C46.9043 9.29292 45.0503 10.7484 44.5513 11.442V21.9794C44.5513 22.9504 45.55 23.6433 46.4053 23.6433V25.6543H37.7066V23.5743C38.5619 23.5743 39.489 23.2969 39.5607 22.0491V10.3317C39.5607 9.9852 38.9899 9.01423 37.7066 9.01423V6.93485H44.0523Z" fill="white"/>
<path d="M64.4444 8.18261C64.017 8.04389 63.3044 7.48969 63.3044 6.93485H56.9587V9.01423C58.242 9.01423 58.8127 9.9852 58.8127 10.3317V22.0491C58.741 23.2969 57.814 23.5743 56.9587 23.5743V25.6543H65.6574V23.6433C64.8014 23.6433 63.8034 22.9504 63.8034 21.9794V11.442C64.3017 10.7484 66.1557 9.29292 66.8684 9.36196C67.5824 9.43099 67.7954 9.98583 67.7954 10.7484V16.6407H72.7867V9.01486C72.7867 7.42002 71.7177 6.38065 69.6501 6.38065C67.5824 6.38065 64.944 7.83615 64.4444 8.18261Z" fill="white"/>
<path d="M114.302 6.93485H123V9.01486C122.073 9.01486 121.146 9.63875 121.146 10.4704V21.9788C121.146 22.9498 122.145 23.6427 123 23.6427V25.6537H114.302V23.5737C115.157 23.5737 116.084 23.2962 116.155 22.0485V10.3323C116.155 9.9852 115.585 9.01486 114.302 9.01486V6.93485Z" fill="white"/>
<path d="M103.035 8.18261C102.607 8.04389 101.893 7.48969 101.893 6.93485H95.547V9.01423C96.8309 9.01423 97.4009 9.9852 97.4009 10.3317V22.0491C97.3306 23.2969 96.4036 23.5743 95.547 23.5743V25.6543H104.246V23.6433C103.39 23.6433 102.392 22.9504 102.392 21.9794V11.442C102.892 10.7484 104.746 9.29292 105.459 9.36196C106.171 9.43099 106.386 9.98583 106.386 10.7484V16.6407H111.377V9.01486C111.377 7.42002 110.308 6.38065 108.24 6.38065C106.171 6.38065 103.534 7.83615 103.035 8.18261Z" fill="white"/>
<path d="M0 23.1575V25.653H12.479V23.1575H11.195C9.34103 23.1575 8.55669 21.9795 8.55669 21.3549V15.5317C8.55669 14.422 9.27002 14.1452 10.126 14.2143C11.1917 14.3005 11.9794 15.462 11.9794 16.1556H14.1187V8.46002H11.9794C11.9794 10.7478 10.4823 10.8168 10.0543 10.8168C9.62635 10.8168 8.77102 10.6091 8.55669 10.0549V5.34065C8.55669 3.53806 9.769 3.33032 10.696 3.33032H111.62V0.141268H1.92566L0.0716681 3.33032H1.71135C3.49369 3.33032 3.56534 5.47936 3.56534 6.38065V21.3549C3.56534 23.0188 2.13869 23.1575 1.42602 23.1575H0Z" fill="white"/>
</svg>
