<svg width="660" height="475" viewBox="0 0 660 475" fill="none" xmlns="http://www.w3.org/2000/svg">
<path d="M126.587 123.303C126.194 127.476 125.456 131.61 124.38 135.662C122.852 140.906 119.98 145.659 116.047 149.45C109.173 156.324 99.1687 159.761 86.0333 159.761C70.591 159.761 59.9979 157.713 54.2541 153.617C48.5103 149.521 45.6267 142.106 45.6031 131.371V123.303H0V474.64H220.477V123.303H126.587ZM109.832 414.489H96.9618V401.636H109.832V414.489ZM109.832 386.24H96.9618V373.388H109.832V386.24ZM109.832 357.992H96.9618V345.139H109.832V357.992ZM139.846 414.347H126.958V401.494H139.828L139.846 414.347ZM139.846 386.099H126.958V373.246H139.828L139.846 386.099ZM139.846 357.851H126.958V344.998H139.828L139.846 357.851ZM169.86 414.206H156.954V401.353H169.824L169.86 414.206ZM169.86 385.958H156.954V373.105H169.824L169.86 385.958ZM169.86 357.71H156.954V344.857H169.824L169.86 357.71Z" fill="white"/>
<path d="M220.477 0V474.693H0V592.876H15.1128V580.041C15.1128 562.809 18.0965 550.71 24.0639 543.742C30.0313 536.774 40.5479 533.29 55.6136 533.29H168.5V564.081H266.027V318.41C266.027 254.216 280.857 209.431 310.518 184.054C340.179 158.678 391.69 145.99 465.053 145.99H585.867C595.369 132.64 605.95 120.092 617.505 108.473C658.076 67.9368 703.097 40.7539 752.566 26.924C802.036 13.0942 862.858 4.17249 935.032 0.158896L964.304 0.547308V0H220.477ZM523.156 120.531H510.233V107.696H523.085L523.156 120.531ZM523.156 92.2832H510.233V79.448H523.085L523.156 92.2832ZM523.156 64.0351H510.233V51.3234H523.085L523.156 64.0351ZM553.17 120.39H540.246V107.696H553.099L553.17 120.39ZM553.17 92.142H540.246V79.448H553.099L553.17 92.142ZM553.17 63.8938H540.246V51.3234H553.099L553.17 63.8938ZM583.183 120.249H570.26V107.696H583.113L583.183 120.249ZM583.183 92.0007H570.26V79.448H583.113L583.183 92.0007ZM583.183 63.7526H570.26V51.3234H583.113L583.183 63.7526Z" fill="#9681F2"/>
<path d="M45.6031 123.303V51.8177H87.5693C99.6807 51.8177 109.173 55.2487 116.047 62.1107C121.553 67.5617 125.03 74.7323 125.899 82.4317C126.706 90.0545 127.059 97.7186 126.958 105.383L127.117 116.983C126.993 119.207 126.817 121.291 126.587 123.303H220.477V0H0V123.303H45.6031Z" fill="#12152A"/>
<path d="M126.958 105.295C127.06 97.6302 126.706 89.9661 125.899 82.3433C125.03 74.6439 121.554 67.4733 116.047 62.0223C109.185 55.2192 99.6929 51.8176 87.5697 51.8176H45.6035V123.303H63.3822C63.3822 122.35 63.1703 121.396 63.1703 120.319V75.0871H87.04C93.9491 75.0871 99.3515 77.035 103.247 80.9309C106.383 84.0307 108.358 88.113 108.844 92.495C109.308 96.8161 109.515 101.161 109.462 105.507V112.145C109.327 115.722 108.806 119.273 107.908 122.738C107.908 122.932 107.767 123.109 107.714 123.303H126.587C126.817 121.29 126.994 119.207 127.117 116.983L126.958 105.295Z" fill="#9681F2"/>
<path d="M103.247 130.648C99.3457 134.55 93.6431 136.509 86.1926 136.509C77.4004 136.509 71.3623 135.332 68.0785 132.978C65.3949 131.054 63.8766 127.788 63.3822 123.321H45.6035V131.389C45.6035 142.088 48.4813 149.486 54.2369 153.582C59.9924 157.678 70.5855 159.726 86.0161 159.726C99.1515 159.726 109.156 156.289 116.03 149.415C119.962 145.624 122.835 140.871 124.363 135.627C125.439 131.575 126.177 127.442 126.57 123.268H107.785C106.897 126.061 105.339 128.595 103.247 130.648Z" fill="#12152A"/>
<path d="M68.0781 132.961C71.3619 135.315 77.4 136.492 86.1922 136.492C93.6427 136.492 99.3453 134.532 103.247 130.63C105.324 128.607 106.881 126.111 107.784 123.356H63.3818C63.8762 127.77 65.3239 131.036 68.0781 132.961Z" fill="white"/>
<path d="M107.979 122.738C108.877 119.273 109.398 115.721 109.532 112.145V105.506C109.591 101.161 109.39 96.8161 108.932 92.4946C108.446 88.1126 106.47 84.0303 103.335 80.9305C99.4394 77.0346 94.0369 75.0867 87.1279 75.0867H63.1699V120.319C63.1699 121.396 63.2935 122.349 63.3818 123.303H107.784C107.837 123.109 107.926 122.932 107.979 122.738Z" fill="#12152A"/>
<path d="M109.832 345.281H96.9609V358.152H109.832V345.281Z" fill="#12152A"/>
<path d="M139.829 345.281H126.958V358.152H139.829V345.281Z" fill="#12152A"/>
<path d="M169.824 345.281H156.953V358.152H169.824V345.281Z" fill="#12152A"/>
<path d="M109.832 373.458H96.9609V386.329H109.832V373.458Z" fill="#12152A"/>
<path d="M139.829 373.458H126.958V386.329H139.829V373.458Z" fill="#12152A"/>
<path d="M169.824 373.458H156.953V386.329H169.824V373.458Z" fill="#12152A"/>
<path d="M109.832 401.636H96.9609V414.507H109.832V401.636Z" fill="#12152A"/>
<path d="M139.829 401.636H126.958V414.507H139.829V401.636Z" fill="#12152A"/>
<path d="M169.824 401.636H156.953V414.507H169.824V401.636Z" fill="#12152A"/>
<path d="M604.564 222.755C613.214 214.023 624.589 208.51 636.802 207.13C648.864 205.852 660.991 205.292 673.119 205.453L691.657 205.205C693.21 205.205 694.658 205.417 696.159 205.541V145.99H585.867C539.752 210.455 516.671 295.882 516.624 402.272C516.397 445.395 518.388 488.501 522.591 531.419C531.266 614.433 549.292 675.231 576.669 713.814C602.751 750.501 642.57 775.218 696.123 787.965V334.635H588.198V268.005C588.198 248.761 593.653 233.677 604.564 222.755ZM601.033 446.233H588.162V433.362H601.033V446.233ZM601.033 417.985H588.162V405.185H601.033V417.985ZM648.172 376.937H661.025V389.807H648.172V376.937ZM648.172 405.185H661.025V418.055H648.172V405.185ZM648.172 433.433H661.025V446.304H648.172V433.433ZM618.158 377.078H631.029V389.948H618.158V377.078ZM618.158 405.326H631.029V418.197H618.158V405.326ZM618.158 433.574H631.029V446.445H618.158V433.574ZM601.033 377.219V390.09H588.162V377.219H601.033Z" fill="#12152A"/>
<path d="M625.131 306.722V268.817C625.131 257.87 628.233 249.296 634.436 243.093C639.369 238.151 645.839 235.038 652.779 234.266C659.64 233.542 666.538 233.224 673.436 233.312L684.029 233.171C688.115 233.384 692.184 233.855 696.211 234.583V205.541C694.71 205.417 693.263 205.294 691.709 205.205L673.171 205.452C661.043 205.292 648.916 205.852 636.854 207.13C624.641 208.51 613.267 214.023 604.616 222.754C593.705 233.689 588.25 248.772 588.25 268.005V334.635H696.211V306.722H625.131Z" fill="#9681F2"/>
<path d="M673.436 233.242C666.538 233.153 659.641 233.472 652.78 234.195C645.84 234.967 639.37 238.081 634.436 243.023C628.233 249.237 625.132 257.812 625.132 268.746V306.652H696.158V234.442C692.132 233.714 688.063 233.242 683.976 233.03L673.436 233.242Z" fill="#12152A"/>
<path d="M601.069 377.007H588.198V389.877H601.069V377.007Z" fill="#9681F2"/>
<path d="M631.064 377.007H618.193V389.877H631.064V377.007Z" fill="#9681F2"/>
<path d="M661.078 377.007H648.207V389.877H661.078V377.007Z" fill="#9681F2"/>
<path d="M601.069 405.185H588.198V418.056H601.069V405.185Z" fill="#9681F2"/>
<path d="M631.064 405.185H618.193V418.056H631.064V405.185Z" fill="#9681F2"/>
<path d="M661.078 405.185H648.207V418.056H661.078V405.185Z" fill="#9681F2"/>
<path d="M601.069 433.362H588.198V446.233H601.069V433.362Z" fill="#9681F2"/>
<path d="M631.064 433.362H618.193V446.233H631.064V433.362Z" fill="#9681F2"/>
<path d="M661.078 433.362H648.207V446.233H661.078V433.362Z" fill="#9681F2"/>
<path d="M195.972 209.778C191.734 203.834 184.084 200.856 173.02 200.844H29.5547V244.17C29.5547 256.681 33.0857 266.486 40.1478 273.583C45.774 279.267 53.1751 282.855 61.122 283.753C65.271 284.265 70.5145 284.6 76.7291 284.741V284.847H146.131L158.172 285.006C164.663 284.755 171.109 283.808 177.399 282.181C182.815 280.605 187.727 277.641 191.646 273.583C198.708 266.521 202.239 256.299 202.239 242.916V242.599C202.263 226.662 200.174 215.722 195.972 209.778Z" fill="#9681F2"/>
<path d="M767.15 62.9937C774.212 53.0009 787.053 48.0045 805.673 48.0045H964.304V0.547592L935.032 0.15918C862.811 4.14923 801.989 13.0709 752.567 26.9243C703.144 40.7777 658.124 67.9607 617.505 108.473C605.95 120.092 595.369 132.64 585.867 145.99H696.159V205.541C704.624 206.061 713.02 207.398 721.229 209.531C722.834 210.008 724.413 210.568 725.96 211.208C732.409 213.855 738.253 217.783 743.139 222.755C754.026 233.689 759.476 249.579 759.487 270.424C759.487 273.813 759.488 277.009 759.293 280.081H854.066V189.157H850.976L830.726 189.44C819.811 189.024 808.973 187.432 798.399 184.69C789.3 182.039 781.048 177.062 774.459 170.248C762.489 158.314 756.504 140.994 756.504 118.289C756.504 111.439 756.733 105.154 757.21 99.3985C758.516 82.5673 761.83 70.4324 767.15 62.9937Z" fill="white"/>
<path d="M553.169 51.3232H540.299V64.1938H553.169V51.3232Z" fill="white"/>
<path d="M553.169 79.5012H540.299V92.3718H553.169V79.5012Z" fill="white"/>
<path d="M583.166 107.678H570.295V120.549H583.166V107.678Z" fill="white"/>
<path d="M583.166 79.5012H570.295V92.3718H583.166V79.5012Z" fill="white"/>
<path d="M583.166 51.3232H570.295V64.1938H583.166V51.3232Z" fill="white"/>
<path d="M553.169 107.678H540.299V120.549H553.169V107.678Z" fill="white"/>
<path d="M523.173 51.3232H510.303V64.1938H523.173V51.3232Z" fill="white"/>
<path d="M523.173 107.678H510.303V120.549H523.173V107.678Z" fill="white"/>
<path d="M523.173 79.5012H510.303V92.3718H523.173V79.5012Z" fill="white"/>
<path d="M585.867 145.99H465.053C391.679 145.99 340.167 158.678 310.518 184.055C280.869 209.431 266.039 254.216 266.027 318.41V531.419H522.591C518.375 488.484 516.371 445.36 516.589 402.219C516.612 295.817 539.705 210.408 585.867 145.99Z" fill="white"/>
<path d="M459.827 404.849H389.472C384.051 404.849 380.326 406.314 378.261 409.227C376.195 412.14 375.153 417.49 375.153 425.293C375.153 431.932 376.889 436.987 380.362 440.459C382.277 442.439 384.674 443.887 387.318 444.661C390.404 445.446 393.564 445.907 396.746 446.038H402.642H459.827C461.222 446.038 462.511 446.038 463.747 446.038C466.302 446.003 468.853 445.838 471.391 445.544C475.269 445.103 478.881 443.353 481.631 440.583C485.162 437.052 486.898 432.249 486.839 426.176V404.99H459.827V404.849Z" fill="#9681F2"/>
<path d="M332.922 288.767C334.952 289.015 337.53 289.173 340.567 289.244C341.802 289.244 343.091 289.244 344.486 289.244H401.671H407.568C410.746 289.12 413.901 288.652 416.978 287.849C419.628 287.078 422.032 285.63 423.952 283.647C427.483 280.116 429.248 275.12 429.248 268.499C429.248 260.678 428.207 255.329 426.141 252.416C424.075 249.502 420.332 248.055 414.93 248.055H317.456V269.241C317.305 271.867 317.688 274.496 318.583 276.97C319.479 279.443 320.867 281.709 322.664 283.63C325.394 286.467 329.015 288.281 332.922 288.767Z" fill="#12152A"/>
<path d="M389.807 390.99C392.49 390.228 394.926 388.772 396.869 386.77C400.4 383.239 402.059 378.243 402.059 371.622C402.059 363.819 401.029 358.457 398.97 355.538C396.91 352.619 393.173 351.166 387.759 351.178H317.456V372.364C317.456 378.49 319.222 383.292 322.664 386.753C325.417 389.532 329.036 391.288 332.922 391.731C334.952 391.979 337.53 392.137 340.567 392.226H374.5L380.397 392.314C383.571 392.203 386.725 391.759 389.807 390.99Z" fill="#12152A"/>
<path d="M459.828 303.509H416.661C411.241 303.509 407.516 304.957 405.45 307.87C403.384 310.783 402.343 316.15 402.343 323.954C402.343 330.575 404.108 335.642 407.639 339.102C409.557 341.091 411.961 342.545 414.613 343.322C417.693 344.109 420.847 344.57 424.023 344.699L429.902 344.61H463.853C466.89 344.61 469.45 344.363 471.498 344.116C475.38 343.677 478.995 341.92 481.738 339.137C485.269 335.677 487.005 330.881 486.946 324.748V303.562H459.934L459.828 303.509Z" fill="#9681F2"/>
<path d="M281.598 67.5837C283.082 67.7602 284.918 67.8838 287.125 67.9368H289.949H331.192H335.447C337.736 67.8467 340.009 67.5093 342.226 66.9304C344.136 66.3749 345.869 65.3349 347.258 63.9114C349.765 61.4044 351.001 57.7498 351.001 52.9653C351.001 47.3333 350.259 43.4845 348.776 41.3835C347.293 39.2826 344.592 38.3115 340.743 38.3115H270.458V53.6185C270.353 55.5115 270.631 57.4062 271.274 59.1898C271.917 60.9733 272.912 62.6091 274.201 63.9997C276.191 65.9953 278.799 67.2585 281.598 67.5837Z" fill="#12152A"/>
<path d="M373.123 78.2124H341.98C338.078 78.2124 335.394 79.2717 333.893 81.355C332.393 83.4383 331.669 87.3224 331.669 92.9544C331.669 97.739 332.905 101.376 335.412 103.883C336.792 105.321 338.528 106.368 340.444 106.92C342.661 107.493 344.934 107.824 347.223 107.908H351.478H375.948C377.795 107.885 379.639 107.767 381.474 107.555C384.27 107.254 386.879 106.008 388.871 104.024C390.169 102.625 391.17 100.978 391.813 99.1814C392.456 97.3851 392.729 95.477 392.614 93.5723V78.2124H373.194H373.123Z" fill="white"/>
</svg>
