<svg width="22" height="20" viewBox="0 0 22 20" fill="none" xmlns="http://www.w3.org/2000/svg">
<path d="M21.56 15.3002L13.89 2.58018C13.5798 2.095 13.1525 1.69571 12.6475 1.41912C12.1424 1.14253 11.5758 0.997559 11 0.997559C10.4241 0.997559 9.85756 1.14253 9.3525 1.41912C8.84743 1.69571 8.42012 2.095 8.10998 2.58018L0.439978 15.3002C0.169032 15.7518 0.0217669 16.2669 0.0129899 16.7935C0.00421295 17.3201 0.134233 17.8397 0.389978 18.3002C0.685657 18.8184 1.11364 19.2489 1.63018 19.5476C2.14672 19.8463 2.7333 20.0025 3.32998 20.0002H18.67C19.2627 20.0065 19.8467 19.8564 20.3629 19.5649C20.879 19.2735 21.3092 18.851 21.61 18.3402C21.8732 17.875 22.0074 17.3478 21.9986 16.8134C21.9898 16.2789 21.8384 15.7565 21.56 15.3002ZM11 16.0002C10.8022 16.0002 10.6089 15.9415 10.4444 15.8317C10.28 15.7218 10.1518 15.5656 10.0761 15.3829C10.0004 15.2001 9.98061 14.9991 10.0192 14.8051C10.0578 14.6111 10.153 14.4329 10.2929 14.2931C10.4327 14.1532 10.6109 14.058 10.8049 14.0194C10.9989 13.9808 11.1999 14.0006 11.3827 14.0763C11.5654 14.152 11.7216 14.2802 11.8314 14.4446C11.9413 14.6091 12 14.8024 12 15.0002C12 15.2654 11.8946 15.5198 11.7071 15.7073C11.5195 15.8948 11.2652 16.0002 11 16.0002ZM12 12.0002C12 12.2654 11.8946 12.5198 11.7071 12.7073C11.5195 12.8948 11.2652 13.0002 11 13.0002C10.7348 13.0002 10.4804 12.8948 10.2929 12.7073C10.1053 12.5198 9.99998 12.2654 9.99998 12.0002V8.00018C9.99998 7.73497 10.1053 7.48061 10.2929 7.29308C10.4804 7.10554 10.7348 7.00018 11 7.00018C11.2652 7.00018 11.5195 7.10554 11.7071 7.29308C11.8946 7.48061 12 7.73497 12 8.00018V12.0002Z" fill="#DF125C"/>
</svg>
