<svg width="1574" height="799" viewBox="0 0 1574 799" fill="none" xmlns="http://www.w3.org/2000/svg">
<path d="M126.587 123.303C126.194 127.476 125.456 131.61 124.38 135.662C122.852 140.906 119.98 145.659 116.047 149.45C109.173 156.324 99.1687 159.761 86.0333 159.761C70.591 159.761 59.9979 157.713 54.2541 153.617C48.5103 149.521 45.6267 142.106 45.6031 131.371V123.303H0V474.64H220.477V123.303H126.587ZM109.832 414.489H96.9618V401.636H109.832V414.489ZM109.832 386.24H96.9618V373.388H109.832V386.24ZM109.832 357.992H96.9618V345.139H109.832V357.992ZM139.846 414.347H126.958V401.494H139.828L139.846 414.347ZM139.846 386.099H126.958V373.246H139.828L139.846 386.099ZM139.846 357.851H126.958V344.998H139.828L139.846 357.851ZM169.86 414.206H156.954V401.353H169.824L169.86 414.206ZM169.86 385.958H156.954V373.105H169.824L169.86 385.958ZM169.86 357.71H156.954V344.857H169.824L169.86 357.71Z" fill="white"/>
<path d="M220.477 0V474.693H0V592.876H15.1128V580.041C15.1128 562.809 18.0965 550.71 24.0639 543.742C30.0313 536.774 40.5479 533.29 55.6136 533.29H168.5V564.081H266.027V318.41C266.027 254.216 280.857 209.431 310.518 184.054C340.179 158.678 391.69 145.99 465.053 145.99H585.867C595.369 132.64 605.95 120.092 617.505 108.473C658.076 67.9368 703.097 40.7539 752.566 26.924C802.036 13.0942 862.858 4.17249 935.032 0.158896L964.304 0.547308V0H220.477ZM523.156 120.531H510.233V107.696H523.085L523.156 120.531ZM523.156 92.2832H510.233V79.448H523.085L523.156 92.2832ZM523.156 64.0351H510.233V51.3234H523.085L523.156 64.0351ZM553.17 120.39H540.246V107.696H553.099L553.17 120.39ZM553.17 92.142H540.246V79.448H553.099L553.17 92.142ZM553.17 63.8938H540.246V51.3234H553.099L553.17 63.8938ZM583.183 120.249H570.26V107.696H583.113L583.183 120.249ZM583.183 92.0007H570.26V79.448H583.113L583.183 92.0007ZM583.183 63.7526H570.26V51.3234H583.113L583.183 63.7526Z" fill="#9681F2"/>
<path d="M964.304 350.56V189.157H854.065V280.045H759.293C758.516 299.395 755.332 313.019 749.741 320.917C743.244 330.062 731.474 334.635 714.431 334.635H696.158V788.053C724.877 794.939 757.527 798.405 794.109 798.452H821.562V607.018H751.454V389.454H828.466C852.924 389.454 870.09 393.679 879.966 402.13C889.841 410.581 894.778 425.5 894.778 446.886V541.235H964.304V401.76H1230.56C1253.98 401.76 1272.67 405.879 1286.63 414.118C1293.84 418.313 1300.08 423.994 1304.92 430.785C1318.61 450.064 1325.46 485.574 1325.46 537.315C1325.46 581.253 1313.96 614.727 1290.98 637.738C1287.96 640.746 1284.79 643.598 1281.48 646.283V710.159H1573.07V387.477C1573.07 374.853 1572.61 362.601 1571.85 350.56H964.304ZM1360.22 419.662H1457.59C1463.01 419.662 1466.73 421.127 1468.8 424.04C1470.86 426.953 1471.91 432.303 1471.91 440.106C1471.91 446.745 1470.14 451.8 1466.61 455.272C1464.69 457.252 1462.3 458.7 1459.65 459.474C1456.57 460.259 1453.41 460.72 1450.23 460.851H1444.33H1387.23C1385.84 460.851 1384.55 460.851 1383.31 460.851C1380.76 460.816 1378.21 460.651 1375.67 460.357C1371.79 459.924 1368.17 458.173 1365.43 455.396C1361.9 451.865 1360.16 447.063 1360.22 440.989V419.662ZM1387.23 563.763H1383.31C1380.28 563.763 1377.72 563.533 1375.67 563.286C1371.79 562.847 1368.17 561.09 1365.43 558.307C1361.9 554.776 1360.16 549.98 1360.22 543.918V522.591H1430.42C1435.84 522.591 1439.56 524.039 1441.63 526.952C1443.69 529.865 1444.73 535.215 1444.73 543.018C1444.73 549.656 1443 554.712 1439.53 558.184C1437.61 560.164 1435.21 561.612 1432.57 562.386C1429.49 563.188 1426.33 563.65 1423.14 563.763H1417.26H1387.23ZM1529.6 597.537C1529.6 603.663 1527.84 608.448 1524.31 611.926C1521.55 614.705 1517.93 616.461 1514.05 616.905C1512.02 617.152 1509.44 617.311 1506.4 617.381C1505.17 617.381 1503.88 617.381 1502.48 617.381H1445.39H1439.49C1436.31 617.324 1433.15 616.915 1430.06 616.163C1427.38 615.406 1424.95 613.957 1423 611.961C1419.47 608.43 1417.79 603.434 1417.79 596.813C1417.79 588.992 1418.83 583.642 1420.9 580.729C1422.97 577.816 1426.71 576.369 1432.11 576.369H1529.5L1529.6 597.537ZM1529.6 496.197C1529.6 502.305 1527.84 507.102 1524.31 510.586C1521.55 513.365 1517.93 515.121 1514.05 515.564C1512.02 515.811 1509.44 515.97 1506.4 516.041H1472.56H1466.66C1463.48 515.929 1460.33 515.467 1457.25 514.664C1454.6 513.893 1452.2 512.445 1450.28 510.462C1446.82 506.931 1445.09 501.876 1445.09 495.296C1445.09 487.493 1446.12 482.137 1448.18 479.23C1450.24 476.323 1453.97 474.869 1459.39 474.869H1529.6V496.197Z" fill="#9681F2"/>
<path d="M1047.28 48.0048H1140.08V120.814C1140.08 141.836 1134.12 158.314 1122.21 170.249C1112.73 179.801 1100.27 185.825 1086.9 187.321C1079.84 188.204 1071.12 188.751 1060.67 189.087C1056.43 189.193 1052.01 189.246 1047.21 189.246H964.233V350.649H1571.85C1565.46 249.426 1532.24 168.73 1472.19 108.562C1417.8 54.1134 1351.52 21.9458 1273.36 12.059C1217.94 5.11464 1143.26 1.68366 1049.31 1.76605L964.304 0.547852V48.0048H1047.28ZM1352.52 121.326H1419.15C1438.4 121.326 1453.47 126.782 1464.38 137.693C1473.12 146.343 1478.63 157.718 1480.01 169.931C1481.32 181.991 1481.91 194.118 1481.78 206.247L1482.02 224.785C1481.63 234.769 1480.17 244.683 1477.68 254.358C1475.25 262.687 1470.7 270.24 1464.46 276.268C1453.54 287.167 1437.65 292.616 1416.79 292.616C1392.25 292.616 1375.4 289.368 1366.26 282.871C1357.11 276.374 1352.55 264.603 1352.56 247.56L1352.52 121.326ZM1311.62 121.326H1324.49V134.179H1311.62V121.326ZM1311.62 149.575H1324.49V162.427H1311.62V149.575ZM1311.62 177.823H1324.49V190.676H1311.62V177.823ZM1281.6 121.45H1294.47V134.179H1281.6V121.45ZM1281.6 149.698H1294.47V162.427H1281.6V149.698ZM1281.6 177.946H1294.47V190.799H1281.6V177.946ZM1251.59 121.574H1264.44V134.179H1251.59V121.574ZM1251.59 149.822H1264.44V162.427H1251.59V149.822ZM1251.59 178.07H1264.44V190.923H1251.59V178.07ZM1177.24 212.021H1238.36V268.093C1238.36 284.289 1233.77 296.977 1224.59 306.158C1217.31 313.51 1207.74 318.151 1197.46 319.311C1192.16 319.982 1185.29 320.405 1177.24 320.6V320.723H1087.55L1071.98 320.935C1063.57 320.614 1055.22 319.389 1047.07 317.28C1040.07 315.246 1033.72 311.411 1028.66 306.158C1019.48 296.977 1014.89 283.612 1014.89 266.063C1014.89 245.43 1017.62 231.259 1023.08 223.549C1028.54 215.84 1038.43 211.991 1052.76 212.003H1177.31L1177.24 212.021Z" fill="#12152A"/>
<path d="M1060.74 188.998C1071.19 188.751 1079.98 188.204 1086.97 187.233C1100.34 185.736 1112.8 179.712 1122.28 170.16C1134.2 158.225 1140.16 141.747 1140.15 120.726V48.0046H964.304V189.245H1047.28C1052.08 189.157 1056.5 189.104 1060.74 188.998Z" fill="white"/>
<path d="M576.704 713.866C549.327 675.296 531.289 614.48 522.591 531.418H266.027V564.08H308.188V714.043H266.027V798.452H794.109C757.481 798.452 724.831 794.986 696.159 788.053C642.664 775.235 602.846 750.507 576.704 713.866ZM488.429 759.099C482.952 764.786 476.079 768.938 468.496 771.139C459.686 773.4 450.661 774.714 441.572 775.059L424.694 774.829C413.656 774.971 402.62 774.458 391.643 773.293C380.54 772.062 370.189 767.079 362.301 759.169C352.378 749.247 347.417 735.529 347.417 718.015V657.299H462.352C477.83 657.299 488.523 661.46 494.431 669.781C500.34 678.103 503.283 693.404 503.259 715.685C503.283 734.693 498.333 749.188 488.411 759.169L488.429 759.099Z" fill="#9681F2"/>
<path d="M398.035 691.409H385.164V691.427H398.035V691.409Z" fill="#9681F2"/>
<path d="M398.035 751.401H385.164V751.419H398.035V751.401Z" fill="#9681F2"/>
<path d="M398.035 721.406H385.164V721.423H398.035V721.406Z" fill="#9681F2"/>
<path d="M1573.07 387.477V350.56H1571.85C1572.61 362.601 1573.07 374.853 1573.07 387.477Z" fill="#9681F2"/>
<path d="M45.6031 123.303V51.8177H87.5693C99.6807 51.8177 109.173 55.2487 116.047 62.1107C121.553 67.5617 125.03 74.7323 125.899 82.4317C126.706 90.0545 127.059 97.7186 126.958 105.383L127.117 116.983C126.993 119.207 126.817 121.291 126.587 123.303H220.477V0H0V123.303H45.6031Z" fill="#12152A"/>
<path d="M126.958 105.295C127.06 97.6302 126.706 89.9661 125.899 82.3433C125.03 74.6439 121.554 67.4733 116.047 62.0223C109.185 55.2192 99.6929 51.8176 87.5697 51.8176H45.6035V123.303H63.3822C63.3822 122.35 63.1703 121.396 63.1703 120.319V75.0871H87.04C93.9491 75.0871 99.3515 77.035 103.247 80.9309C106.383 84.0307 108.358 88.113 108.844 92.495C109.308 96.8161 109.515 101.161 109.462 105.507V112.145C109.327 115.722 108.806 119.273 107.908 122.738C107.908 122.932 107.767 123.109 107.714 123.303H126.587C126.817 121.29 126.994 119.207 127.117 116.983L126.958 105.295Z" fill="#9681F2"/>
<path d="M103.247 130.648C99.3457 134.55 93.6431 136.509 86.1926 136.509C77.4004 136.509 71.3623 135.332 68.0785 132.978C65.3949 131.054 63.8766 127.788 63.3822 123.321H45.6035V131.389C45.6035 142.088 48.4813 149.486 54.2369 153.582C59.9924 157.678 70.5855 159.726 86.0161 159.726C99.1515 159.726 109.156 156.289 116.03 149.415C119.962 145.624 122.835 140.871 124.363 135.627C125.439 131.575 126.177 127.442 126.57 123.268H107.785C106.897 126.061 105.339 128.595 103.247 130.648Z" fill="#12152A"/>
<path d="M68.0781 132.961C71.3619 135.315 77.4 136.492 86.1922 136.492C93.6427 136.492 99.3453 134.532 103.247 130.63C105.324 128.607 106.881 126.111 107.784 123.356H63.3818C63.8762 127.77 65.3239 131.036 68.0781 132.961Z" fill="white"/>
<path d="M107.979 122.738C108.877 119.273 109.398 115.721 109.532 112.145V105.506C109.591 101.161 109.39 96.8161 108.932 92.4946C108.446 88.1126 106.47 84.0303 103.335 80.9305C99.4394 77.0346 94.0369 75.0867 87.1279 75.0867H63.1699V120.319C63.1699 121.396 63.2935 122.349 63.3818 123.303H107.784C107.837 123.109 107.926 122.932 107.979 122.738Z" fill="#12152A"/>
<path d="M109.832 345.281H96.9609V358.152H109.832V345.281Z" fill="#12152A"/>
<path d="M139.829 345.281H126.958V358.152H139.829V345.281Z" fill="#12152A"/>
<path d="M169.824 345.281H156.953V358.152H169.824V345.281Z" fill="#12152A"/>
<path d="M109.832 373.458H96.9609V386.329H109.832V373.458Z" fill="#12152A"/>
<path d="M139.829 373.458H126.958V386.329H139.829V373.458Z" fill="#12152A"/>
<path d="M169.824 373.458H156.953V386.329H169.824V373.458Z" fill="#12152A"/>
<path d="M109.832 401.636H96.9609V414.507H109.832V401.636Z" fill="#12152A"/>
<path d="M139.829 401.636H126.958V414.507H139.829V401.636Z" fill="#12152A"/>
<path d="M169.824 401.636H156.953V414.507H169.824V401.636Z" fill="#12152A"/>
<path d="M696.159 798.453H266.027V799H696.159V798.453Z" fill="#9681F2"/>
<path d="M604.564 222.755C613.214 214.023 624.589 208.51 636.802 207.13C648.864 205.852 660.991 205.292 673.119 205.453L691.657 205.205C693.21 205.205 694.658 205.417 696.159 205.541V145.99H585.867C539.752 210.455 516.671 295.882 516.624 402.272C516.397 445.395 518.388 488.501 522.591 531.419C531.266 614.433 549.292 675.231 576.669 713.814C602.751 750.501 642.57 775.218 696.123 787.965V334.635H588.198V268.005C588.198 248.761 593.653 233.677 604.564 222.755ZM601.033 446.233H588.162V433.362H601.033V446.233ZM601.033 417.985H588.162V405.185H601.033V417.985ZM648.172 376.937H661.025V389.807H648.172V376.937ZM648.172 405.185H661.025V418.055H648.172V405.185ZM648.172 433.433H661.025V446.304H648.172V433.433ZM618.158 377.078H631.029V389.948H618.158V377.078ZM618.158 405.326H631.029V418.197H618.158V405.326ZM618.158 433.574H631.029V446.445H618.158V433.574ZM601.033 377.219V390.09H588.162V377.219H601.033Z" fill="#12152A"/>
<path d="M625.131 306.722V268.817C625.131 257.87 628.233 249.296 634.436 243.093C639.369 238.151 645.839 235.038 652.779 234.266C659.64 233.542 666.538 233.224 673.436 233.312L684.029 233.171C688.115 233.384 692.184 233.855 696.211 234.583V205.541C694.71 205.417 693.263 205.294 691.709 205.205L673.171 205.452C661.043 205.292 648.916 205.852 636.854 207.13C624.641 208.51 613.267 214.023 604.616 222.754C593.705 233.689 588.25 248.772 588.25 268.005V334.635H696.211V306.722H625.131Z" fill="#9681F2"/>
<path d="M696.158 306.722H696.97C706.645 306.722 713.331 304.121 717.027 298.918C720.722 293.716 722.564 284.117 722.553 270.123C722.553 258.259 719.451 249.225 713.248 243.022C709.822 239.478 705.532 236.887 700.802 235.501C699.371 235.095 697.8 234.76 696.158 234.442V306.651V306.722Z" fill="white"/>
<path d="M673.436 233.242C666.538 233.153 659.641 233.472 652.78 234.195C645.84 234.967 639.37 238.081 634.436 243.023C628.233 249.237 625.132 257.812 625.132 268.746V306.652H696.158V234.442C692.132 233.714 688.063 233.242 683.976 233.03L673.436 233.242Z" fill="#12152A"/>
<path d="M601.069 377.007H588.198V389.877H601.069V377.007Z" fill="#9681F2"/>
<path d="M631.064 377.007H618.193V389.877H631.064V377.007Z" fill="#9681F2"/>
<path d="M661.078 377.007H648.207V389.877H661.078V377.007Z" fill="#9681F2"/>
<path d="M601.069 405.185H588.198V418.056H601.069V405.185Z" fill="#9681F2"/>
<path d="M631.064 405.185H618.193V418.056H631.064V405.185Z" fill="#9681F2"/>
<path d="M661.078 405.185H648.207V418.056H661.078V405.185Z" fill="#9681F2"/>
<path d="M601.069 433.362H588.198V446.233H601.069V433.362Z" fill="#9681F2"/>
<path d="M631.064 433.362H618.193V446.233H631.064V433.362Z" fill="#9681F2"/>
<path d="M661.078 433.362H648.207V446.233H661.078V433.362Z" fill="#9681F2"/>
<path d="M462.352 657.299H347.417V717.945C347.417 735.458 352.378 749.176 362.3 759.099C370.179 767.035 380.531 772.043 391.643 773.293C402.62 774.458 413.656 774.971 424.693 774.829L441.572 775.059C450.656 774.701 459.675 773.375 468.478 771.104C476.05 768.933 482.921 764.818 488.411 759.169C498.333 749.247 503.294 734.799 503.294 715.826C503.294 693.463 500.351 678.162 494.466 669.923C488.581 661.684 477.876 657.476 462.352 657.299ZM398.034 738.513V751.366H385.164V738.513H398.034ZM398.034 708.499V721.352H385.164V708.499H398.034ZM398.034 678.485V691.338H385.164V678.485H398.034Z" fill="white"/>
<path d="M398.035 678.556H385.164V691.409H398.035V678.556Z" fill="#12152A"/>
<path d="M398.035 678.539H385.164V678.556H398.035V678.539Z" fill="#12152A"/>
<path d="M398.035 708.552H385.164V721.405H398.035V708.552Z" fill="#12152A"/>
<path d="M398.035 708.535H385.164V708.553H398.035V708.535Z" fill="#12152A"/>
<path d="M398.035 738.549H385.164V751.402H398.035V738.549Z" fill="#12152A"/>
<path d="M398.035 738.531H385.164V738.548H398.035V738.531Z" fill="#12152A"/>
<path d="M168.501 564.081V533.29H55.6141C40.5366 533.29 30.0201 536.774 24.0644 543.742C18.1088 550.71 15.1251 562.81 15.1133 580.041V634.33H64.5476V564.081H168.501Z" fill="#12152A"/>
<path d="M894.778 541.235V446.886C894.778 425.5 889.841 410.582 879.966 402.131C870.091 393.68 852.924 389.454 828.466 389.454H751.454V607.018H821.563V541.235H894.778Z" fill="#12152A"/>
<path d="M195.972 209.778C191.734 203.834 184.084 200.856 173.02 200.844H29.5547V244.17C29.5547 256.681 33.0857 266.486 40.1478 273.583C45.774 279.267 53.1751 282.855 61.122 283.753C65.271 284.265 70.5145 284.6 76.7291 284.741V284.847H146.131L158.172 285.006C164.663 284.755 171.109 283.808 177.399 282.181C182.815 280.605 187.727 277.641 191.646 273.583C198.708 266.521 202.239 256.299 202.239 242.916V242.599C202.263 226.662 200.174 215.722 195.972 209.778Z" fill="#9681F2"/>
<path d="M1502.57 576.333H1432.22C1426.81 576.333 1423.08 577.787 1421.01 580.694C1418.94 583.607 1417.9 588.957 1417.9 596.778C1417.9 603.399 1419.66 608.448 1423.11 611.926C1425.05 613.922 1427.49 615.371 1430.17 616.128C1433.25 616.932 1436.4 617.394 1439.58 617.505H1445.48H1502.66C1504.06 617.505 1505.34 617.505 1506.58 617.505C1509.62 617.505 1512.19 617.275 1514.22 617.028C1518.11 616.585 1521.73 614.829 1524.48 612.05C1528.01 608.519 1529.78 603.787 1529.78 597.661V576.474H1502.57V576.333Z" fill="white"/>
<path d="M1375.67 460.234C1378.21 460.528 1380.76 460.693 1383.31 460.728C1384.55 460.728 1385.84 460.728 1387.23 460.728H1444.42H1450.31C1453.5 460.597 1456.66 460.136 1459.74 459.351C1462.39 458.577 1464.78 457.129 1466.7 455.149C1470.23 451.618 1471.99 446.563 1471.99 439.983C1471.99 432.18 1470.95 426.812 1468.89 423.917C1466.82 421.022 1463.1 419.539 1457.68 419.539H1360.22V440.725C1360.22 446.857 1361.96 451.659 1365.43 455.131C1368.15 457.96 1371.77 459.763 1375.67 460.234Z" fill="#12152A"/>
<path d="M1432.57 562.456C1435.21 561.682 1437.61 560.234 1439.53 558.255C1443.06 554.724 1444.79 549.668 1444.73 543.089C1444.73 535.285 1443.7 529.93 1441.63 527.023C1439.56 524.11 1435.84 522.662 1430.42 522.662H1360.22V543.848C1360.22 549.957 1361.96 554.753 1365.43 558.237C1368.17 561.019 1371.79 562.777 1375.67 563.216C1377.72 563.463 1380.28 563.622 1383.31 563.692H1417.26H1423.14C1426.32 563.626 1429.48 563.211 1432.57 562.456Z" fill="#12152A"/>
<path d="M1502.57 474.923H1459.39C1453.99 474.923 1450.25 476.376 1448.18 479.283C1446.11 482.191 1445.08 487.546 1445.09 495.35C1445.09 501.988 1446.82 507.043 1450.28 510.515C1452.2 512.498 1454.6 513.946 1457.25 514.717C1460.33 515.52 1463.48 515.982 1466.66 516.094H1472.56H1506.49C1509.53 516.094 1512.11 515.865 1514.14 515.618C1518.02 515.174 1521.64 513.418 1524.39 510.639C1527.93 507.108 1529.69 502.312 1529.69 496.25V474.923H1502.57Z" fill="white"/>
<path d="M767.15 62.9937C774.212 53.0009 787.053 48.0045 805.673 48.0045H964.304V0.547592L935.032 0.15918C862.811 4.14923 801.989 13.0709 752.567 26.9243C703.144 40.7777 658.124 67.9607 617.505 108.473C605.95 120.092 595.369 132.64 585.867 145.99H696.159V205.541C704.624 206.061 713.02 207.398 721.229 209.531C722.834 210.008 724.413 210.568 725.96 211.208C732.409 213.855 738.253 217.783 743.139 222.755C754.026 233.689 759.476 249.579 759.487 270.424C759.487 273.813 759.488 277.009 759.293 280.081H854.066V189.157H850.976L830.726 189.44C819.811 189.024 808.973 187.432 798.399 184.69C789.3 182.039 781.048 177.062 774.459 170.248C762.489 158.314 756.504 140.994 756.504 118.289C756.504 111.439 756.733 105.154 757.21 99.3985C758.516 82.5673 761.83 70.4324 767.15 62.9937Z" fill="white"/>
<path d="M743.138 222.754C738.252 217.783 732.408 213.855 725.96 211.208C724.413 210.568 722.834 210.008 721.228 209.531C713.02 207.397 704.624 206.061 696.158 205.541V234.513C697.8 234.831 699.371 235.166 700.802 235.572C705.532 236.957 709.822 239.549 713.248 243.093C719.463 249.308 722.564 258.341 722.553 270.194C722.553 284.141 720.711 293.716 717.027 298.919C713.343 304.121 706.657 306.722 696.97 306.722H696.158V334.635H714.502C731.498 334.635 743.268 330.062 749.812 320.917C755.403 313.019 758.587 299.395 759.363 280.045C759.487 276.973 759.558 273.778 759.558 270.388C759.511 249.555 754.038 233.677 743.138 222.754Z" fill="#12152A"/>
<path d="M266.027 564.081H168.5V634.33H141.788H64.5469V714.043H266.027H308.187V564.081H266.027Z" fill="#12152A"/>
<path d="M168.5 634.33V564.081H64.5469V634.33H141.788H168.5Z" fill="#9681F2"/>
<path d="M964.304 0V0.547308L1049.31 1.76551C1143.25 1.76551 1217.93 5.22591 1273.36 12.1467C1351.5 22.0453 1417.78 54.1835 1472.19 108.561C1532.3 168.73 1565.52 249.425 1571.85 350.648H1573.07V0H964.304ZM1483.49 47.6688H1470.67V34.7982H1483.54L1483.49 47.6688ZM1513.5 47.6688H1500.68V34.7982H1513.55L1513.5 47.6688ZM1543.52 47.6688H1530.7V34.7982H1543.57L1543.52 47.6688Z" fill="white"/>
<path d="M1366.22 282.87C1375.37 289.367 1392.21 292.616 1416.75 292.616C1437.58 292.616 1453.47 287.166 1464.42 276.267C1470.66 270.239 1475.22 262.687 1477.64 254.357C1480.14 244.682 1481.59 234.769 1481.99 224.785L1481.74 206.247C1481.87 194.117 1481.28 181.99 1479.97 169.93C1478.6 157.728 1473.1 146.361 1464.39 137.71C1453.47 126.799 1438.4 121.344 1419.15 121.344H1352.52V247.648C1352.52 264.632 1357.09 276.373 1366.22 282.87ZM1380.35 158.26H1418.25C1429.2 158.26 1437.77 161.362 1443.98 167.565C1448.92 172.498 1452.03 178.968 1452.8 185.908C1453.53 192.769 1453.85 199.666 1453.76 206.565L1453.9 217.158C1453.68 222.839 1452.85 228.48 1451.43 233.983C1450.06 238.721 1447.46 243.014 1443.91 246.43C1437.69 252.645 1428.66 255.746 1416.82 255.734C1402.85 255.734 1393.27 253.892 1388.08 250.208C1382.89 246.524 1380.29 239.839 1380.28 230.152L1380.35 158.26Z" fill="#9681F2"/>
<path d="M1388.22 250.155C1393.43 253.839 1403.02 255.681 1416.96 255.681C1428.8 255.681 1437.83 252.579 1444.05 246.377C1447.6 242.961 1450.2 238.668 1451.57 233.93C1452.99 228.426 1453.82 222.785 1454.04 217.104L1453.9 206.511C1453.99 199.613 1453.67 192.716 1452.94 185.855C1452.17 178.915 1449.06 172.445 1444.12 167.511C1437.9 161.32 1429.33 158.219 1418.39 158.207H1380.42V230.046C1380.42 239.756 1383.02 246.459 1388.22 250.155Z" fill="white"/>
<path d="M1264.49 121.326H1251.62V134.197H1264.49V121.326Z" fill="#9681F2"/>
<path d="M1294.49 121.326H1281.62V134.197H1294.49V121.326Z" fill="#9681F2"/>
<path d="M1324.49 121.326H1311.62V134.197H1324.49V121.326Z" fill="#9681F2"/>
<path d="M1264.49 149.503H1251.62V162.374H1264.49V149.503Z" fill="#9681F2"/>
<path d="M1294.49 149.503H1281.62V162.374H1294.49V149.503Z" fill="#9681F2"/>
<path d="M1324.49 149.503H1311.62V162.374H1324.49V149.503Z" fill="#9681F2"/>
<path d="M1264.49 177.698H1251.62V190.569H1264.49V177.698Z" fill="#9681F2"/>
<path d="M1294.49 177.698H1281.62V190.569H1294.49V177.698Z" fill="#9681F2"/>
<path d="M1324.49 177.698H1311.62V190.569H1324.49V177.698Z" fill="#9681F2"/>
<path d="M1087.55 211.632H1052.72C1038.41 211.632 1028.52 215.48 1023.04 223.178C1017.57 230.876 1014.84 245.047 1014.85 265.692C1014.85 283.241 1019.44 296.606 1028.62 305.786C1033.68 311.04 1040.03 314.875 1047.04 316.909C1055.18 319.017 1063.54 320.243 1071.95 320.564L1087.52 320.352H1177.28V320.228C1185.33 320.034 1192.11 319.61 1197.49 318.939C1207.77 317.78 1217.35 313.138 1224.63 305.786C1233.81 296.606 1238.4 283.917 1238.4 267.722V211.649H1087.55V211.632ZM1189.18 227.115H1202.05V239.986H1189.18V227.115ZM1189.18 257.129H1202.05V269.999H1189.18V257.129ZM1189.18 287.142H1202.05V300.013H1189.18V287.142Z" fill="white"/>
<path d="M1202.03 287.108H1189.16V299.978H1202.03V287.108Z" fill="#9681F2"/>
<path d="M1202.03 257.112H1189.16V269.982H1202.03V257.112Z" fill="#9681F2"/>
<path d="M1202.03 227.116H1189.16V239.986H1202.03V227.116Z" fill="#9681F2"/>
<path d="M1543.48 34.7981H1530.61V47.6687H1543.48V34.7981Z" fill="#9681F2"/>
<path d="M1513.48 34.7981H1500.61V47.6687H1513.48V34.7981Z" fill="#9681F2"/>
<path d="M1483.49 34.7981H1470.62V47.6687H1483.49V34.7981Z" fill="#9681F2"/>
<path d="M553.169 51.3232H540.299V64.1938H553.169V51.3232Z" fill="white"/>
<path d="M553.169 79.5012H540.299V92.3718H553.169V79.5012Z" fill="white"/>
<path d="M583.166 107.678H570.295V120.549H583.166V107.678Z" fill="white"/>
<path d="M583.166 79.5012H570.295V92.3718H583.166V79.5012Z" fill="white"/>
<path d="M583.166 51.3232H570.295V64.1938H583.166V51.3232Z" fill="white"/>
<path d="M553.169 107.678H540.299V120.549H553.169V107.678Z" fill="white"/>
<path d="M523.173 51.3232H510.303V64.1938H523.173V51.3232Z" fill="white"/>
<path d="M523.173 107.678H510.303V120.549H523.173V107.678Z" fill="white"/>
<path d="M523.173 79.5012H510.303V92.3718H523.173V79.5012Z" fill="white"/>
<path d="M64.5471 714.043V634.33H41.8249H15.1128V592.876H0V798.452H266.027V714.043H64.5471Z" fill="white"/>
<path d="M850.976 48.0046H805.673C787.088 48.0046 774.247 53.001 767.15 62.9938C761.83 70.4325 758.516 82.538 757.21 99.3104H854.066V189.157H964.304V48.0046H850.976Z" fill="#12152A"/>
<path d="M776.613 99.3101H757.193C756.716 105.066 756.486 111.351 756.486 118.201C756.486 140.953 762.442 158.302 774.353 170.248C780.942 177.061 789.194 182.039 798.294 184.69C808.867 187.431 819.705 189.024 830.62 189.439L850.871 189.157H854.048V99.3101H776.613Z" fill="#9681F2"/>
<path d="M1304.92 430.785C1300.08 424.043 1293.85 418.405 1286.67 414.242C1272.69 406.003 1253.99 401.884 1230.6 401.884H964.304V541.359H1281.48V646.177C1284.79 643.493 1287.96 640.641 1290.98 637.632C1313.96 614.622 1325.46 581.148 1325.46 537.21C1325.46 485.48 1318.61 450.005 1304.92 430.785Z" fill="#12152A"/>
<path d="M1281.48 710.07H1281.37V730.268V798.452H1573.07V710.07H1281.48Z" fill="#12152A"/>
<path d="M1023.04 602.851H1011.07V614.821H1023.04V602.851Z" fill="white"/>
<path d="M1050.94 602.851H1038.97V614.821H1050.94V602.851Z" fill="white"/>
<path d="M1078.83 602.851H1066.86V614.821H1078.83V602.851Z" fill="white"/>
<path d="M964.304 541.235V542.277C964.304 582.848 975.797 614.627 998.784 637.614C1009.11 648.027 1021.37 656.332 1034.87 662.066C1036.51 662.755 1038.14 663.461 1039.83 664.079C1048.53 667.276 1057.56 669.467 1066.76 670.611C1085.71 672.965 1111.24 674.142 1143.34 674.142L1182.41 674.672C1207.13 673.295 1227.92 670.247 1244.79 665.527C1248.23 664.539 1251.61 663.36 1254.92 661.996C1257.15 661.095 1259.34 660.089 1261.51 659.012C1268.62 655.469 1275.32 651.146 1281.48 646.124V541.235H964.304ZM1023.02 614.821H1011.07V602.851H1023.02V614.821ZM1050.94 614.821H1038.97V602.851H1050.94V614.821ZM1078.83 614.821H1066.86V602.851H1078.83V614.821Z" fill="#9681F2"/>
<path d="M1134.13 710.07V730.268V798.452H1281.37V730.268V710.07H1134.13Z" fill="#9681F2"/>
<path d="M585.867 145.99H465.053C391.679 145.99 340.167 158.678 310.518 184.055C280.869 209.431 266.039 254.216 266.027 318.41V531.419H522.591C518.375 488.484 516.371 445.36 516.589 402.219C516.612 295.817 539.705 210.408 585.867 145.99Z" fill="white"/>
<path d="M459.827 404.849H389.472C384.051 404.849 380.326 406.314 378.261 409.227C376.195 412.14 375.153 417.49 375.153 425.293C375.153 431.932 376.889 436.987 380.362 440.459C382.277 442.439 384.674 443.887 387.318 444.661C390.404 445.446 393.564 445.907 396.746 446.038H402.642H459.827C461.222 446.038 462.511 446.038 463.747 446.038C466.302 446.003 468.853 445.838 471.391 445.544C475.269 445.103 478.881 443.353 481.631 440.583C485.162 437.052 486.898 432.249 486.839 426.176V404.99H459.827V404.849Z" fill="#9681F2"/>
<path d="M332.922 288.767C334.952 289.015 337.53 289.173 340.567 289.244C341.802 289.244 343.091 289.244 344.486 289.244H401.671H407.568C410.746 289.12 413.901 288.652 416.978 287.849C419.628 287.078 422.032 285.63 423.952 283.647C427.483 280.116 429.248 275.12 429.248 268.499C429.248 260.678 428.207 255.329 426.141 252.416C424.075 249.502 420.332 248.055 414.93 248.055H317.456V269.241C317.305 271.867 317.688 274.496 318.583 276.97C319.479 279.443 320.867 281.709 322.664 283.63C325.394 286.467 329.015 288.281 332.922 288.767Z" fill="#12152A"/>
<path d="M389.807 390.99C392.49 390.228 394.926 388.772 396.869 386.77C400.4 383.239 402.059 378.243 402.059 371.622C402.059 363.819 401.029 358.457 398.97 355.538C396.91 352.619 393.173 351.166 387.759 351.178H317.456V372.364C317.456 378.49 319.222 383.292 322.664 386.753C325.417 389.532 329.036 391.288 332.922 391.731C334.952 391.979 337.53 392.137 340.567 392.226H374.5L380.397 392.314C383.571 392.203 386.725 391.759 389.807 390.99Z" fill="#12152A"/>
<path d="M459.828 303.509H416.661C411.241 303.509 407.516 304.957 405.45 307.87C403.384 310.783 402.343 316.15 402.343 323.954C402.343 330.575 404.108 335.642 407.639 339.102C409.557 341.091 411.961 342.545 414.613 343.322C417.693 344.109 420.847 344.57 424.023 344.699L429.902 344.61H463.853C466.89 344.61 469.45 344.363 471.498 344.116C475.38 343.677 478.995 341.92 481.738 339.137C485.269 335.677 487.005 330.881 486.946 324.748V303.562H459.934L459.828 303.509Z" fill="#9681F2"/>
<path d="M281.598 67.5837C283.082 67.7602 284.918 67.8838 287.125 67.9368H289.949H331.192H335.447C337.736 67.8467 340.009 67.5093 342.226 66.9304C344.136 66.3749 345.869 65.3349 347.258 63.9114C349.765 61.4044 351.001 57.7498 351.001 52.9653C351.001 47.3333 350.259 43.4845 348.776 41.3835C347.293 39.2826 344.592 38.3115 340.743 38.3115H270.458V53.6185C270.353 55.5115 270.631 57.4062 271.274 59.1898C271.917 60.9733 272.912 62.6091 274.201 63.9997C276.191 65.9953 278.799 67.2585 281.598 67.5837Z" fill="#12152A"/>
<path d="M373.123 78.2124H341.98C338.078 78.2124 335.394 79.2717 333.893 81.355C332.393 83.4383 331.669 87.3224 331.669 92.9544C331.669 97.739 332.905 101.376 335.412 103.883C336.792 105.321 338.528 106.368 340.444 106.92C342.661 107.493 344.934 107.824 347.223 107.908H351.478H375.948C377.795 107.885 379.639 107.767 381.474 107.555C384.27 107.254 386.879 106.008 388.871 104.024C390.169 102.625 391.17 100.978 391.813 99.1814C392.456 97.3851 392.729 95.477 392.614 93.5723V78.2124H373.194H373.123Z" fill="white"/>
<path d="M1261.51 659.083C1259.34 660.16 1257.15 661.166 1254.92 662.066C1251.61 663.43 1248.23 664.609 1244.79 665.597C1227.9 670.305 1207.11 673.354 1182.42 674.743L1143.34 674.213C1111.22 674.213 1085.69 673.036 1066.76 670.682C1057.56 669.538 1048.53 667.346 1039.83 664.15C1038.07 663.532 1036.51 662.826 1034.87 662.137C1021.37 656.414 1009.12 648.121 998.784 637.72C975.797 614.71 964.304 582.93 964.304 542.382V541.341H821.562V798.452H1134.06V710.071H1281.41V646.177C1275.27 651.201 1268.6 655.529 1261.51 659.083ZM960.173 734.205C958.39 740.31 955.043 745.842 950.462 750.254C942.471 758.257 930.83 762.259 915.541 762.259C897.532 762.259 885.174 759.876 878.465 755.109C871.756 750.342 868.401 741.726 868.401 729.262V636.625H917.271C931.395 636.625 942.453 640.627 950.445 648.631C956.856 654.97 960.906 663.312 961.921 672.271C962.861 681.119 963.274 690.015 963.156 698.913L963.333 712.507C963.052 719.831 961.993 727.105 960.173 734.205Z" fill="white"/>
<path d="M961.938 672.271C960.923 663.312 956.874 654.97 950.462 648.631C942.47 640.639 931.412 636.637 917.288 636.625H868.419V729.262C868.419 741.726 871.773 750.342 878.482 755.109C885.191 759.876 897.55 762.259 915.558 762.259C930.859 762.259 942.5 758.257 950.48 750.254C955.06 745.842 958.408 740.31 960.19 734.205C962.016 727.106 963.081 719.832 963.368 712.507L963.192 698.913C963.303 690.015 962.884 681.119 961.938 672.271ZM941.017 719.216C940.006 722.686 938.107 725.832 935.508 728.344C930.953 732.899 924.327 735.176 915.629 735.176C905.412 735.176 898.391 733.817 894.566 731.098C890.753 728.397 888.846 723.489 888.846 716.409V663.726H916.635C924.662 663.726 930.953 665.998 935.508 670.541C939.151 674.151 941.45 678.898 942.023 683.994C942.58 689.024 942.833 694.082 942.782 699.142L942.888 706.875C942.716 711.045 942.089 715.183 941.017 719.216Z" fill="#12152A"/>
<path d="M942.077 683.994C941.503 678.898 939.205 674.151 935.562 670.541C931.007 665.986 924.716 663.714 916.688 663.726H888.899V716.409C888.899 723.471 890.806 728.397 894.62 731.098C898.433 733.799 905.46 735.176 915.682 735.176C924.392 735.176 931.019 732.899 935.562 728.344C938.16 725.832 940.059 722.686 941.07 719.216C942.108 715.173 942.7 711.029 942.836 706.858L942.783 699.142C942.851 694.083 942.615 689.025 942.077 683.994Z" fill="#9681F2"/>
</svg>
