<svg width="240" height="181" viewBox="0 0 240 181" fill="none" xmlns="http://www.w3.org/2000/svg">
<path d="M68.1413 2.69602C51.0004 4.60965 35.0371 12.3312 22.9186 24.5704C7.63953 39.8069 1.43236e-06 60.8848 1.11135e-06 87.804L0 181L177.204 181C201.045 181 217.43 174.607 226.359 161.822C235.289 149.036 239.836 125.466 240 91.1127C240 61.9469 232.36 39.7457 217.081 24.5091C208.621 15.8185 198.031 9.48206 186.359 6.12728C172.777 2.5936 158.85 0.539156 144.823 1.727e-06L118.833 0.367616C101.904 0.140153 84.9771 0.91768 68.1413 2.69602Z" fill="#9681F2"/>
</svg>
