<svg width="94" height="99" viewBox="0 0 94 99" fill="none" xmlns="http://www.w3.org/2000/svg">
<path d="M94 0L77 0V17L94 17V0Z" fill="#12152A"/>
<path d="M94 41H77V58H94V41Z" fill="#12152A"/>
<path d="M56 0L39 0V17L56 17V0Z" fill="#12152A"/>
<path d="M56 41H39V58H56V41Z" fill="#12152A"/>
<path d="M18 0L0 0L0 17L18 17L18 0Z" fill="#12152A"/>
<path d="M18 41H0L0 58H18L18 41Z" fill="#12152A"/>
<path d="M94 81H77V99H94V81Z" fill="#12152A"/>
<path d="M56 81H39V99H56V81Z" fill="#12152A"/>
<path d="M18 81H0L0 99H18L18 81Z" fill="#12152A"/>
</svg>
