<svg width="34" height="22" viewBox="0 0 34 22" fill="none" xmlns="http://www.w3.org/2000/svg">
<path d="M17 0.866211C10.5039 0.866211 4.61297 4.42027 0.266032 10.193C-0.0886775 10.6659 -0.0886775 11.3267 0.266032 11.7996C4.61297 17.5793 10.5039 21.1334 17 21.1334C23.4961 21.1334 29.387 17.5793 33.734 11.8066C34.0887 11.3336 34.0887 10.6729 33.734 10.2C29.387 4.42027 23.4961 0.866211 17 0.866211ZM17.466 18.1357C13.1538 18.407 9.59282 14.8529 9.86407 10.5338C10.0866 6.97279 12.973 4.08642 16.534 3.86386C20.8462 3.59261 24.4072 7.14666 24.1359 11.4658C23.9064 15.0198 21.02 17.9062 17.466 18.1357ZM17.2504 14.839C14.9274 14.9851 13.0078 13.0724 13.1608 10.7494C13.279 8.8298 14.837 7.27881 16.7566 7.15362C19.0796 7.00756 20.9992 8.92021 20.8462 11.2432C20.721 13.1698 19.163 14.7208 17.2504 14.839Z" fill="white"/>
</svg>
