<svg width="64" height="30" viewBox="0 0 64 30" fill="none" xmlns="http://www.w3.org/2000/svg">
<path d="M22.6303 14.8718L22.6716 18.1141C22.6063 19.8647 22.354 21.6033 21.9189 23.3002C21.4909 24.7598 20.6898 26.0825 19.5947 27.1381C17.6813 29.0515 14.9021 30.0055 11.2572 30C6.95616 30 4.00605 29.432 2.40694 28.2961C0.80782 27.1602 0.0055142 25.1144 0 22.1588V0H11.6708C15.0455 0 17.6868 0.953949 19.5947 2.86186C21.1258 4.37697 22.0919 6.37063 22.3325 8.51116C22.5585 10.6235 22.6579 12.7475 22.6303 14.8718ZM16.5426 20.2481C16.7292 18.4762 16.8065 16.6945 16.7742 14.9131C16.8088 13.162 16.7315 11.4104 16.5426 9.66913C16.4438 8.72468 16.086 7.82587 15.5087 7.07195C14.9708 6.44538 14.2951 5.95201 13.5345 5.63054C12.7738 5.30907 11.9491 5.16827 11.1249 5.21918H5.85608V21.8279C5.8067 22.2825 5.88782 22.7418 6.08997 23.1519C6.29212 23.5621 6.60691 23.9062 6.99751 24.1439C8.2886 24.66 9.68035 24.875 11.067 24.7725C11.9003 24.8294 12.7355 24.6915 13.5063 24.37C14.2772 24.0484 14.9627 23.5519 15.5087 22.9198C16.0958 22.1431 16.4539 21.2177 16.5426 20.2481Z" fill="white"/>
<path d="M63.4149 14.8718L63.4563 18.1141C63.391 19.8647 63.1387 21.6033 62.7036 23.3002C62.2755 24.7598 61.4745 26.0825 60.3794 27.1381C58.4659 29.0515 55.6868 30.0055 52.0419 30C47.7408 30 44.7907 29.432 43.1916 28.2961C41.5925 27.1602 40.7902 25.1144 40.7847 22.1588V0H52.4555C55.8302 0 58.4715 0.953949 60.3794 2.86186C61.9104 4.37697 62.8766 6.37063 63.1172 8.51116C63.3431 10.6235 63.4426 12.7475 63.4149 14.8718ZM57.3273 20.2481C57.5139 18.4762 57.5912 16.6945 57.5589 14.9131C57.5935 13.162 57.5161 11.4104 57.3273 9.66913C57.2285 8.72468 56.8707 7.82587 56.2933 7.07195C55.7555 6.44538 55.0797 5.95201 54.3191 5.63054C53.5585 5.30907 52.7337 5.16827 51.9096 5.21918H46.6407V21.8279C46.5914 22.2825 46.6725 22.7418 46.8746 23.1519C47.0768 23.5621 47.3916 23.9062 47.7822 24.1439C49.0733 24.66 50.465 24.875 51.8517 24.7725C52.685 24.8294 53.5201 24.6915 54.291 24.37C55.0619 24.0484 55.7474 23.5519 56.2933 22.9198C56.8804 22.1431 57.2386 21.2177 57.3273 20.2481Z" fill="white"/>
<path d="M34.6815 30H28.8254V0H34.6815V30Z" fill="white"/>
</svg>
