<svg width="42" height="42" viewBox="0 0 42 42" fill="none" xmlns="http://www.w3.org/2000/svg">
<path d="M0 42V32H10L0 42Z" fill="#DF125C"/>
<path d="M11.9247 0.476645C8.92507 0.814968 6.13149 2.1801 4.01075 4.34394C1.33692 7.03769 2.53235e-07 10.7642 1.96482e-07 15.5234L0 32L31.0108 32C35.1828 32 38.0502 30.8698 39.6129 28.6093C41.1756 26.3489 41.9713 22.1819 42 16.1083C42 10.9519 40.6631 7.02686 37.9892 4.33311C36.5086 2.79663 34.6554 1.67639 32.6129 1.08328C30.236 0.458537 27.7988 0.095322 25.3441 3.02225e-07L20.7957 0.0649951C17.8332 0.0247786 14.871 0.162241 11.9247 0.476645Z" fill="#DF125C"/>
<path d="M12.78 19.102C12.312 19.102 11.91 19.048 11.574 18.94C11.25 18.832 10.98 18.682 10.764 18.49C10.56 18.286 10.41 18.052 10.314 17.788C10.23 17.512 10.188 17.212 10.188 16.888V16.294C10.188 15.97 10.23 15.676 10.314 15.412C10.41 15.136 10.56 14.902 10.764 14.71C10.98 14.506 11.25 14.35 11.574 14.242C11.91 14.134 12.312 14.08 12.78 14.08C13.248 14.08 13.644 14.134 13.968 14.242C14.304 14.35 14.574 14.506 14.778 14.71C14.982 14.902 15.132 15.136 15.228 15.412C15.324 15.676 15.372 15.97 15.372 16.294V16.888C15.372 17.212 15.324 17.512 15.228 17.788C15.132 18.052 14.982 18.286 14.778 18.49C14.574 18.682 14.304 18.832 13.968 18.94C13.644 19.048 13.248 19.102 12.78 19.102ZM20.3386 19.102C19.8706 19.102 19.4686 19.048 19.1326 18.94C18.8086 18.832 18.5386 18.682 18.3226 18.49C18.1186 18.286 17.9686 18.052 17.8726 17.788C17.7886 17.512 17.7466 17.212 17.7466 16.888V16.294C17.7466 15.97 17.7886 15.676 17.8726 15.412C17.9686 15.136 18.1186 14.902 18.3226 14.71C18.5386 14.506 18.8086 14.35 19.1326 14.242C19.4686 14.134 19.8706 14.08 20.3386 14.08C20.8066 14.08 21.2026 14.134 21.5266 14.242C21.8626 14.35 22.1326 14.506 22.3366 14.71C22.5406 14.902 22.6906 15.136 22.7866 15.412C22.8826 15.676 22.9306 15.97 22.9306 16.294V16.888C22.9306 17.212 22.8826 17.512 22.7866 17.788C22.6906 18.052 22.5406 18.286 22.3366 18.49C22.1326 18.682 21.8626 18.832 21.5266 18.94C21.2026 19.048 20.8066 19.102 20.3386 19.102ZM27.8972 19.102C27.4292 19.102 27.0272 19.048 26.6912 18.94C26.3672 18.832 26.0972 18.682 25.8812 18.49C25.6772 18.286 25.5272 18.052 25.4312 17.788C25.3472 17.512 25.3052 17.212 25.3052 16.888V16.294C25.3052 15.97 25.3472 15.676 25.4312 15.412C25.5272 15.136 25.6772 14.902 25.8812 14.71C26.0972 14.506 26.3672 14.35 26.6912 14.242C27.0272 14.134 27.4292 14.08 27.8972 14.08C28.3652 14.08 28.7612 14.134 29.0852 14.242C29.4212 14.35 29.6912 14.506 29.8952 14.71C30.0992 14.902 30.2492 15.136 30.3452 15.412C30.4412 15.676 30.4892 15.97 30.4892 16.294V16.888C30.4892 17.212 30.4412 17.512 30.3452 17.788C30.2492 18.052 30.0992 18.286 29.8952 18.49C29.6912 18.682 29.4212 18.832 29.0852 18.94C28.7612 19.048 28.3652 19.102 27.8972 19.102Z" fill="white"/>
</svg>
