<svg width="131" height="17" viewBox="0 0 131 17" fill="none" xmlns="http://www.w3.org/2000/svg">
<path d="M3.43251 3.41873C1.69274 3.04407 0.376167 1.54546 0 0.0468386L21.4885 0V0.0468386C21.1123 1.54546 19.8428 2.95041 18.056 3.41873H12.6956L12.4135 3.51239V16.9532H9.07501V3.51239L8.79287 3.41873H3.43251Z" fill="white"/>
<path d="M33.0556 3.41873H45.7513C47.5381 3.0909 48.8546 1.49862 49.1838 0H29.5761C29.9523 1.49862 31.2689 3.04407 33.0556 3.41873Z" fill="white"/>
<path d="M127.567 3.41873H114.872C113.132 3.04407 111.816 1.49862 111.439 0H131C130.624 1.49862 129.354 3.0909 127.567 3.41873Z" fill="white"/>
<path d="M111.957 17V6.7438H130.577V17H127.285V10.1625H115.248V17H111.957Z" fill="white"/>
<path d="M101.941 17C103.587 16.2975 104.48 15.0799 104.856 13.6749H90.0449V0.0468386H86.7064V17H101.941Z" fill="white"/>
<path d="M73.7757 3.3719H62.0205L62.0675 6.7438H77.3022V17H57.7886C58.588 15.3609 60.1867 14.0964 62.0675 13.5813H74.0107V10.0689H58.776V0.0468386H77.3963C77.0201 1.49863 75.5625 2.85675 73.7757 3.3719Z" fill="white"/>
<path d="M45.7513 10.1157H33.0556C31.2689 9.74105 29.9523 8.19559 29.5761 6.69697H49.1838C48.8546 8.19559 47.5381 9.78788 45.7513 10.1157Z" fill="white"/>
<path d="M33.0556 17H45.7513C47.5381 16.6722 48.8546 15.0799 49.1838 13.5813H29.5761C29.9523 15.0799 31.2689 16.6722 33.0556 17Z" fill="white"/>
</svg>
