<svg width="193" height="475" viewBox="0 0 193 475" fill="none" xmlns="http://www.w3.org/2000/svg">
<path d="M-416.696 350.56V189.157H-526.935V280.045H-621.707C-622.484 299.395 -625.668 313.019 -631.259 320.917C-637.756 330.062 -649.526 334.635 -666.569 334.635H-684.842V788.053C-656.123 794.939 -623.473 798.405 -586.891 798.452H-559.438V607.018H-629.546V389.454H-552.534C-528.076 389.454 -510.91 393.679 -501.034 402.13C-491.159 410.581 -486.222 425.5 -486.222 446.886V541.235H-416.696V401.76H-150.439C-127.017 401.76 -108.326 405.879 -94.3668 414.118C-87.1566 418.313 -80.9216 423.994 -76.0761 430.785C-62.3875 450.064 -55.5432 485.574 -55.5432 537.315C-55.5432 581.253 -67.0367 614.727 -90.0237 637.738C-93.0421 640.746 -96.2122 643.598 -99.522 646.283V710.159H192.07V387.477C192.07 374.853 191.611 362.601 190.851 350.56H-416.696ZM-20.7803 419.662H76.5876C82.0078 419.662 85.733 421.127 87.7986 424.04C89.8643 426.953 90.9059 432.303 90.9059 440.106C90.9059 446.745 89.1404 451.8 85.6094 455.272C83.6941 457.252 81.297 458.7 78.6533 459.474C75.567 460.259 72.4073 460.72 69.2254 460.851H63.3287H6.23199C4.83722 460.851 3.54846 460.851 2.31262 460.851C-0.242371 460.816 -2.79388 460.651 -5.33209 460.357C-9.21271 459.924 -12.8273 458.173 -15.572 455.396C-19.103 451.865 -20.8392 447.063 -20.7803 440.989V419.662ZM6.23199 563.763H2.31262C-0.72406 563.763 -3.28412 563.533 -5.33209 563.286C-9.21454 562.847 -12.829 561.09 -15.572 558.307C-19.103 554.776 -20.8392 549.98 -20.7803 543.918V522.591H49.4164C54.8365 522.591 58.5617 524.039 60.6274 526.952C62.693 529.865 63.7347 535.215 63.7347 543.018C63.7347 549.656 61.9986 554.712 58.5264 558.184C56.6111 560.164 54.2141 561.612 51.5703 562.386C48.4875 563.188 45.326 563.65 42.1425 563.763H36.2634H6.23199ZM148.603 597.537C148.603 603.663 146.837 608.448 143.306 611.926C140.554 614.705 136.935 616.461 133.049 616.905C131.018 617.152 128.441 617.311 125.404 617.381C124.168 617.381 122.879 617.381 121.485 617.381H64.3879H58.4911C55.3133 617.324 52.1515 616.915 49.0633 616.163C46.3815 615.406 43.9461 613.957 42.0012 611.961C38.4702 608.43 36.793 603.434 36.793 596.813C36.793 588.992 37.8347 583.642 39.9003 580.729C41.9659 577.816 45.7088 576.369 51.1113 576.369H148.497L148.603 597.537ZM148.603 496.197C148.603 502.305 146.837 507.102 143.306 510.586C140.554 513.365 136.935 515.121 133.049 515.564C131.018 515.811 128.441 515.97 125.404 516.041H91.5591H85.6623C82.4846 515.929 79.3289 515.467 76.2522 514.664C73.6021 513.893 71.1986 512.445 69.2784 510.462C65.818 506.931 64.0878 501.876 64.0878 495.296C64.0878 487.493 65.1177 482.137 67.1774 479.23C69.2372 476.323 72.9742 474.869 78.3884 474.869H148.603V496.197Z" fill="#9681F2"/>
<path d="M-333.717 48.0048H-240.922V120.814C-240.922 141.836 -246.877 158.314 -258.789 170.249C-268.267 179.801 -280.726 185.825 -294.099 187.321C-301.161 188.204 -309.883 188.751 -320.334 189.087C-324.572 189.193 -328.985 189.246 -333.788 189.246H-416.767V350.649H190.851C184.46 249.426 151.239 168.73 91.1883 108.562C36.7989 54.1134 -29.4784 21.9458 -107.643 12.059C-163.057 5.11464 -237.738 1.68366 -331.687 1.76605L-416.696 0.547852V48.0048H-333.717ZM-28.4779 121.326H38.1524C57.3965 121.326 72.474 126.782 83.3848 137.693C92.1164 146.343 97.6292 157.718 99.0095 169.931C100.318 181.991 100.908 194.118 100.775 206.247L101.022 224.785C100.629 234.769 99.1733 244.683 96.6791 254.358C94.2532 262.687 89.6951 270.24 83.4554 276.268C72.5445 287.167 56.6549 292.616 35.7866 292.616C11.246 292.616 -5.59695 289.368 -14.7423 282.871C-23.8876 276.374 -28.4544 264.603 -28.4427 247.56L-28.4779 121.326ZM-69.3849 121.326H-56.5142V134.179H-69.3849V121.326ZM-69.3849 149.575H-56.5142V162.427H-69.3849V149.575ZM-69.3849 177.823H-56.5142V190.676H-69.3849V177.823ZM-99.3985 121.45H-86.5279V134.179H-99.3985V121.45ZM-99.3985 149.698H-86.5279V162.427H-99.3985V149.698ZM-99.3985 177.946H-86.5279V190.799H-99.3985V177.946ZM-129.412 121.574H-116.559V134.179H-129.412V121.574ZM-129.412 149.822H-116.559V162.427H-129.412V149.822ZM-129.412 178.07H-116.559V190.923H-129.412V178.07ZM-203.758 212.021H-142.636V268.093C-142.636 284.289 -147.226 296.977 -156.407 306.158C-163.686 313.51 -173.262 318.151 -183.543 319.311C-188.839 319.982 -195.707 320.405 -203.758 320.6V320.723H-293.446L-309.018 320.935C-317.428 320.614 -325.78 319.389 -333.929 317.28C-340.934 315.246 -347.283 311.411 -352.343 306.158C-361.524 296.977 -366.114 283.612 -366.114 266.063C-366.114 245.43 -363.384 231.259 -357.922 223.549C-352.461 215.84 -342.568 211.991 -328.244 212.003H-203.687L-203.758 212.021Z" fill="#12152A"/>
<path d="M192.07 387.477V350.56H190.852C191.611 362.601 192.07 374.853 192.07 387.477Z" fill="#9681F2"/>
<path d="M-5.33206 460.234C-2.79387 460.528 -0.242323 460.693 2.31263 460.728C3.54849 460.728 4.83726 460.728 6.23202 460.728H63.4169H69.3137C72.4955 460.597 75.6552 460.136 78.7415 459.351C81.3853 458.577 83.7824 457.129 85.6977 455.149C89.2287 451.618 90.9942 446.563 90.9942 439.983C90.9942 432.18 89.9525 426.812 87.8869 423.917C85.8212 421.022 82.096 419.539 76.6759 419.539H-20.7803V440.725C-20.7803 446.857 -19.0442 451.659 -15.572 455.131C-12.848 457.96 -9.23104 459.763 -5.33206 460.234Z" fill="#12152A"/>
<path d="M121.573 474.923H78.3886C72.9861 474.923 69.2492 476.376 67.1776 479.283C65.1061 482.191 64.0762 487.546 64.088 495.35C64.088 501.988 65.8182 507.043 69.2786 510.515C71.1988 512.498 73.6023 513.946 76.2524 514.717C79.3291 515.52 82.4847 515.982 85.6625 516.094H91.5593H125.492C128.529 516.094 131.107 515.865 133.137 515.618C137.023 515.174 140.642 513.418 143.395 510.639C146.926 507.108 148.691 502.312 148.691 496.25V474.923H121.573Z" fill="white"/>
<path d="M-416.696 0V0.547308L-331.687 1.76551C-237.75 1.76551 -163.069 5.22591 -107.643 12.1467C-29.502 22.0453 36.7753 54.1835 91.1884 108.561C151.298 168.73 184.519 249.425 190.851 350.648H192.07V0H-416.696ZM102.488 47.6688H89.67V34.7982H102.541L102.488 47.6688ZM132.501 47.6688H119.684V34.7982H132.554L132.501 47.6688ZM162.515 47.6688H149.697V34.7982H162.568L162.515 47.6688Z" fill="white"/>
<path d="M-14.7772 282.87C-5.63182 289.367 11.2111 292.616 35.7517 292.616C56.5848 292.616 72.4743 287.166 83.4205 276.267C89.6602 270.239 94.2184 262.687 96.6442 254.357C99.1385 244.682 100.594 234.769 100.987 224.785L100.74 206.247C100.873 194.117 100.283 181.99 98.9747 169.93C97.6001 157.728 92.1002 146.361 83.3852 137.71C72.4743 126.799 57.3969 121.344 38.1528 121.344H-28.4775V247.648C-28.4775 264.632 -23.9107 276.373 -14.7772 282.87ZM-0.65308 158.26H37.2524C48.1985 158.26 56.773 161.362 62.9759 167.565C67.9177 172.498 71.0313 178.968 71.8034 185.908C72.5268 192.769 72.8451 199.666 72.7568 206.565L72.898 217.158C72.6813 222.839 71.8526 228.48 70.4263 233.983C69.0569 238.721 66.4628 243.014 62.9053 246.43C56.6907 252.645 47.663 255.746 35.8223 255.734C21.8512 255.734 12.2704 253.892 7.07976 250.208C1.88916 246.524 -0.711998 239.839 -0.723768 230.152L-0.65308 158.26Z" fill="#9681F2"/>
<path d="M7.22052 250.155C12.4347 253.839 22.0155 255.681 35.9631 255.681C47.8038 255.681 56.8314 252.579 63.046 246.377C66.6035 242.961 69.1977 238.668 70.567 233.93C71.9934 228.426 72.8221 222.785 73.0388 217.104L72.8975 206.511C72.9859 199.613 72.6676 192.716 71.9442 185.855C71.1721 178.915 68.0585 172.445 63.1166 167.511C56.902 161.32 48.3275 158.219 37.3931 158.207H-0.583008V230.046C-0.583008 239.756 2.01815 246.459 7.22052 250.155Z" fill="white"/>
<path d="M162.48 34.7981H149.609V47.6687H162.48V34.7981Z" fill="#9681F2"/>
<path d="M132.484 34.7981H119.613V47.6687H132.484V34.7981Z" fill="#9681F2"/>
<path d="M102.488 34.7981H89.6172V47.6687H102.488V34.7981Z" fill="#9681F2"/>
</svg>
